<svg width="145" height="202" viewBox="0 0 145 202" fill="none" xmlns="http://www.w3.org/2000/svg">
<path d="M115.005 139.704H91.7933C88.0414 139.704 85 136.594 85 132.756C85 128.919 88.0414 125.808 91.7933 125.808H115.005C118.757 125.808 121.798 128.919 121.798 132.756C121.798 136.594 118.757 139.704 115.005 139.704Z" fill="#FF91AB"/>
<path d="M28.818 137.749C25.6326 137.749 22.9462 136.665 20.8954 135.398C14.4793 131.436 12.9877 124.983 11.6719 119.29C10.3115 113.405 9.2701 109.679 5.16979 107.327C3.12448 106.154 2.39638 103.507 3.54338 101.415C4.68983 99.3234 7.27673 98.5772 9.32343 99.7515C16.8841 104.088 18.576 111.409 19.9357 117.292C21.1673 122.62 22.085 125.987 25.2845 127.963C27.2704 129.189 29.8802 130.031 34.1819 126.979C37.802 124.411 41.193 120.132 44.185 116.357C44.5356 115.914 44.8785 115.482 45.2137 115.062C46.6981 113.204 49.3729 112.93 51.188 114.446C53.004 115.964 53.2734 118.7 51.7901 120.557C51.4613 120.968 51.1253 121.393 50.7818 121.826C47.5984 125.843 43.6365 130.842 39.022 134.116C35.2549 136.789 31.8155 137.749 28.818 137.749Z" fill="#FAF8F1"/>
<path opacity="0.2" d="M51.1877 114.446C49.3725 112.93 46.6978 113.204 45.2134 115.062C44.8785 115.482 44.5353 115.914 44.1846 116.357C41.1927 120.132 37.8017 124.411 34.1816 126.979C33.4853 127.473 32.8337 127.864 32.2217 128.168C33.758 130.654 35.6008 132.944 37.7005 134.991C38.1363 134.722 38.5765 134.432 39.0216 134.116C43.6362 130.842 47.598 125.843 50.7815 121.826C51.1252 121.393 51.4612 120.969 51.7898 120.557C53.2731 118.7 53.0037 115.964 51.1877 114.446Z" fill="#C18F00"/>
<path d="M9.32343 99.7515C7.27673 98.5772 4.68983 99.3234 3.54338 101.415C2.39638 103.507 3.12448 106.154 5.16979 107.327C6.14354 107.886 6.94321 108.523 7.61715 109.247C9.52072 107.974 11.6749 105.717 12.8396 102.335C11.8324 101.396 10.673 100.526 9.32343 99.7515Z" fill="#FF91AB"/>
<path d="M63.9313 139.908C81.2369 139.908 95.2659 126.574 95.2659 110.127C95.2659 93.6798 81.2369 80.3467 63.9313 80.3467C46.6257 80.3467 32.5967 93.6798 32.5967 110.127C32.5967 126.574 46.6257 139.908 63.9313 139.908Z" fill="white"/>
<path opacity="0.1" d="M59.3566 139.589C45.0383 129.974 49.4757 110.267 51.9062 101.648V82.6191C40.5699 87.1016 32.5986 97.7281 32.5986 110.126C32.5986 125.095 44.2206 137.484 59.3566 139.589Z" fill="#C18F00"/>
<path d="M44.8641 58.4857C50.9953 53.2234 55.089 44.3896 46.4408 31.3311C37.7243 18.1694 24.7469 14.8701 14.6151 16.091C12.1172 16.392 10.0216 18.1906 9.29791 20.6546C6.36312 30.648 7.28603 44.293 18.4449 55.3584C29.5168 66.3374 38.7328 63.7479 44.8641 58.4857Z" fill="white"/>
<path d="M8.89003 22.1846C6.48412 32.0104 7.84444 44.8476 18.4449 55.3594C28.0412 64.8754 36.2421 64.1954 42.2501 60.4195C38.1183 31.7292 20.0683 24.1209 8.89003 22.1846Z" fill="#FF91AB"/>
<path d="M83.0006 58.4857C76.8694 53.2234 72.7757 44.3896 81.424 31.3311C90.1404 18.1694 103.118 14.8701 113.25 16.091C115.748 16.392 117.843 18.1906 118.567 20.6546C121.502 30.648 120.578 44.293 109.42 55.3584C98.3482 66.3374 89.1319 63.7479 83.0006 58.4857Z" fill="white"/>
<path d="M118.974 22.1846C121.38 32.0104 120.02 44.8476 109.419 55.3594C99.8232 64.8754 91.6223 64.1954 85.6143 60.4195C89.7463 31.7292 107.796 24.1209 118.974 22.1846Z" fill="#FF91AB"/>
<path d="M117.277 66.4293C117.277 91.3768 93.3939 102.303 63.9324 102.303C34.471 102.303 10.5879 91.3768 10.5879 66.4293C10.5879 41.4818 34.4713 21.2578 63.9324 21.2578C93.3939 21.2578 117.277 41.4818 117.277 66.4293Z" fill="white"/>
<path opacity="0.1" d="M35.4482 28.2314C20.5084 36.2366 10.5869 50.3507 10.5869 66.4285C10.5869 87.8743 28.236 98.959 51.9058 101.648C17.9284 80.8895 22.3598 52.9667 35.4482 28.2314Z" fill="#C18F00"/>
<path d="M41.4908 75.6954C46.8251 75.6954 51.1495 72.1731 51.1495 67.8282C51.1495 63.4832 46.8251 59.9609 41.4908 59.9609C36.1564 59.9609 31.832 63.4832 31.832 67.8282C31.832 72.1731 36.1564 75.6954 41.4908 75.6954Z" fill="#FF91AB"/>
<path d="M93.8453 75.6954C99.1796 75.6954 103.504 72.1731 103.504 67.8282C103.504 63.4832 99.1796 59.9609 93.8453 59.9609C88.5109 59.9609 84.1865 63.4832 84.1865 67.8282C84.1865 72.1731 88.5109 75.6954 93.8453 75.6954Z" fill="#FF91AB"/>
<path d="M67.6687 64.7785C64.9931 64.7785 62.449 63.5934 60.6888 61.5269C59.9367 60.6442 60.0268 59.3054 60.8897 58.5364C61.7524 57.7671 63.0616 57.8592 63.8135 58.7421C64.7864 59.8842 66.1915 60.5391 67.6684 60.5391C69.1453 60.5391 70.5501 59.8842 71.523 58.7421C72.2749 57.8592 73.5838 57.7674 74.4468 58.5364C75.3097 59.3054 75.3998 60.6442 74.6479 61.5269C72.8881 63.5932 70.3443 64.7785 67.6687 64.7785Z" fill="#495059"/>
<path d="M27.8722 69.031C26.9438 69.031 26.0985 68.388 25.8631 67.4245C25.5857 66.2886 26.2607 65.1381 27.3712 64.854C30.0247 64.176 36.3475 63.6927 39.4265 64.1085C40.5611 64.2619 41.3594 65.3269 41.2096 66.4876C41.0595 67.6481 40.0189 68.4637 38.8835 68.3114C36.3751 67.9728 30.5705 68.4061 28.3762 68.9668C28.2077 69.0101 28.0385 69.031 27.8722 69.031Z" fill="#495059"/>
<path d="M30.9487 80.7366C30.3132 80.7366 29.6862 80.4384 29.2797 79.8754C28.6 78.9337 28.7953 77.6065 29.7163 76.9112C31.9164 75.2499 37.582 72.3388 40.5845 71.5235C41.6912 71.2236 42.8257 71.8968 43.1195 73.0282C43.4132 74.1598 42.7544 75.3206 41.6483 75.621C39.2018 76.2855 33.9973 78.9481 32.178 80.3219C31.8075 80.6015 31.3759 80.7366 30.9487 80.7366Z" fill="#495059"/>
<path d="M107.465 69.0309C107.298 69.0309 107.129 69.0103 106.961 68.9671C104.767 68.4063 98.9628 67.9731 96.4535 68.3116C95.3209 68.4637 94.2775 67.6486 94.1274 66.4879C93.9777 65.3271 94.776 64.2622 95.9105 64.1087C98.9895 63.6924 105.313 64.1762 107.966 64.8543C109.076 65.1383 109.751 66.2889 109.474 67.4248C109.238 68.3877 108.393 69.0309 107.465 69.0309Z" fill="#495059"/>
<path d="M104.388 80.7366C103.96 80.7366 103.529 80.6015 103.159 80.3219C101.339 78.9484 96.1348 76.2855 93.6885 75.621C92.5824 75.3206 91.9236 74.1598 92.2174 73.0282C92.5111 71.8968 93.6448 71.2236 94.7523 71.5235C97.7548 72.3388 103.42 75.2499 105.621 76.9112C106.541 77.6065 106.737 78.9337 106.057 79.8754C105.65 80.4384 105.023 80.7366 104.388 80.7366Z" fill="#495059"/>
<path d="M86.6322 140H63.4203C59.6684 140 56.627 136.889 56.627 133.052C56.627 129.214 59.6684 126.104 63.4203 126.104H86.6322C90.3841 126.104 93.4255 129.214 93.4255 133.052C93.4255 136.889 90.3841 140 86.6322 140Z" fill="#FCC4D1"/>
<path d="M36.5839 113.975C35.8586 113.84 35.1426 113.582 34.464 113.191C31.1937 111.31 30.0343 107.074 31.8738 103.729C34.9881 98.0653 42.8619 94.0164 50.5955 94.1009C58.3764 94.1871 65.0011 98.3737 68.7743 105.591C70.5435 108.975 69.2954 113.185 65.987 114.994C62.6789 116.804 58.5623 115.528 56.7931 112.144C55.3963 109.472 53.5027 108.157 50.8345 108.01C47.4001 107.819 44.2921 109.709 43.6997 110.571C42.2366 113.202 39.3438 114.486 36.5839 113.975Z" fill="#F4BDCA"/>
<path d="M144.476 114.226H64.4326V71.5773C64.4326 68.5319 66.8463 66.0635 69.8233 66.0635H139.085C142.062 66.0635 144.476 68.5319 144.476 71.5773V114.226Z" fill="#DEE2E5"/>
<path d="M144.476 114.226H64.4326V126.722H140.787C142.824 126.722 144.475 125.033 144.475 122.95L144.476 114.226Z" fill="#BECFFB"/>
<path d="M36.2935 114.226H64.4322V126.722H36.2935C34.2568 126.722 32.6055 125.033 32.6055 122.95V117.998C32.6055 115.915 34.2568 114.226 36.2935 114.226Z" fill="#BECFFB"/>
<path opacity="0.1" d="M36.2935 114.225H64.4322V126.721H36.2935C34.2568 126.721 32.6055 125.032 32.6055 122.949V117.997C32.6055 115.914 34.2568 114.225 36.2935 114.225Z" fill="black"/>
<path d="M104.453 98.5786C109.008 98.5786 112.7 94.802 112.7 90.1433C112.7 85.4846 109.008 81.708 104.453 81.708C99.8984 81.708 96.2061 85.4846 96.2061 90.1433C96.2061 94.802 99.8984 98.5786 104.453 98.5786Z" fill="white"/>
<ellipse cx="47.2266" cy="58.2939" rx="4.10352" ry="4.19719" fill="#495059"/>
<ellipse cx="88.2617" cy="58.2939" rx="4.10352" ry="4.19719" fill="#495059"/>
<path d="M81.766 0.0262883C65.2876 2.45938 58.3056 13.8832 58.3056 13.8832C57.4375 11.5513 56.3203 9.32381 54.9742 7.24099C54.8765 7.0936 54.7359 6.9811 54.5722 6.91926C54.4086 6.85743 54.23 6.84936 54.0616 6.89619C52.1764 7.49618 50.4246 8.46638 48.9049 9.75214C48.8186 9.82331 48.7471 9.9113 48.6945 10.011C48.6419 10.1106 48.6093 10.22 48.5986 10.3326C48.5879 10.4453 48.5993 10.5589 48.6322 10.667C48.6651 10.7751 48.7187 10.8755 48.7901 10.9622C51.3815 14.2429 53.4885 17.892 55.0444 21.794C55.0539 21.8004 55.065 21.8038 55.0763 21.8038C55.0877 21.8038 55.0988 21.8004 55.1083 21.794C57.8817 21.3653 60.6827 21.1478 63.4879 21.1434H64.2026C65.4471 19.5561 70.4825 13.2977 74.8734 9.91477C74.9755 9.82766 75.106 9.78295 75.239 9.78954C75.372 9.79613 75.4977 9.85354 75.5911 9.95033C75.6844 10.0471 75.7386 10.1762 75.7428 10.3119C75.747 10.4476 75.7009 10.5798 75.6137 10.6824C73.3991 13.5449 70.5081 16.9083 67.5149 21.1825C67.5083 21.1927 67.5043 21.2045 67.5035 21.2168C67.5026 21.229 67.5048 21.2413 67.51 21.2524C67.5151 21.2635 67.5229 21.273 67.5327 21.2802C67.5425 21.2873 67.554 21.2917 67.566 21.2931C70.5768 21.5162 73.5649 21.9883 76.5008 22.7048C76.5097 22.7093 76.5195 22.7117 76.5295 22.7117C76.5395 22.7117 76.5493 22.7093 76.5582 22.7048C83.5784 16.5049 84.8038 7.55976 84.9059 2.84321C84.9096 2.43865 84.8278 2.03803 84.666 1.6686C84.5042 1.29917 84.2662 0.969596 83.9683 0.702309C83.6704 0.435022 83.3194 0.236292 82.9394 0.119639C82.5594 0.00298676 82.1591 -0.0288561 81.766 0.0262883Z" fill="white"/>
<path d="M8.72269 162.615C9.52692 162.615 10.2383 162.679 10.857 162.808C11.9705 162.969 12.9448 163.533 13.78 164.5C14.4914 165.338 15.0636 166.272 15.4967 167.303C15.9297 168.302 16.2545 169.381 16.471 170.541C16.7185 171.669 16.8886 172.828 16.9814 174.021C17.1051 175.213 17.1979 176.389 17.2598 177.549C17.3217 179.031 17.3371 180.448 17.3062 181.801C17.3062 183.155 17.2289 184.556 17.0742 186.006C16.9195 187.553 16.703 189.083 16.4246 190.597C16.1463 192.112 15.6514 193.481 14.9399 194.705C14.3213 195.736 13.5789 196.59 12.7129 197.267C11.8468 197.911 10.9188 198.346 9.92902 198.572C9.03199 198.765 8.10404 198.797 7.14518 198.668C6.21723 198.539 5.35116 198.217 4.54693 197.702C3.7427 197.186 3.09315 196.542 2.59825 195.768C2.13427 194.995 1.7167 194.093 1.34552 193.062C0.788754 191.516 0.433042 189.921 0.278384 188.278C0.185589 186.924 0.10826 185.619 0.0463972 184.363C0.0154658 183.106 0 181.801 0 180.448C0 179.546 0.0154658 178.708 0.0463972 177.935C0.10826 177.162 0.170124 176.324 0.231986 175.422C0.293849 174.681 0.355711 173.972 0.417575 173.296C0.47944 172.619 0.587698 171.91 0.742356 171.169C0.835151 170.589 0.927945 170.041 1.02074 169.526C1.11353 169.011 1.26819 168.479 1.48471 167.931C1.73217 167.383 1.99508 166.884 2.27347 166.433C2.55185 165.95 2.86116 165.515 3.20141 165.128C3.85097 164.387 4.54693 163.823 5.28929 163.437C6.03165 163.05 6.80492 162.792 7.60915 162.663C7.79474 162.631 7.98033 162.615 8.16592 162.615C8.35151 162.615 8.5371 162.615 8.72269 162.615ZM33.7772 195.575C33.8081 196.413 33.7617 197.299 33.638 198.233C33.5143 199.135 33.1122 199.812 32.4317 200.263C31.9368 200.618 31.4728 200.795 31.0398 200.795C30.5139 200.795 30.0809 200.601 29.7407 200.215C29.4313 199.828 29.1839 199.361 28.9983 198.813C28.8436 198.265 28.7354 197.702 28.6735 197.122C28.6426 196.509 28.6271 195.978 28.6271 195.527V183.155H25.6113V195.575C25.6732 196.284 25.6422 197.041 25.5185 197.847C25.4257 198.652 25.2246 199.28 24.9153 199.731C24.5442 200.279 24.0029 200.553 23.2914 200.553C22.9512 200.553 22.6264 200.473 22.3171 200.311C22.0387 200.15 21.7758 199.941 21.5283 199.683C21.0025 199.135 20.6932 198.475 20.6004 197.702C20.5076 196.928 20.4612 196.171 20.4612 195.43V167.69C20.4612 167.561 20.4457 167.448 20.4148 167.351C20.4148 167.222 20.4148 167.093 20.4148 166.965C20.4148 166.514 20.4303 166.03 20.4612 165.515C20.4921 164.967 20.5849 164.451 20.7396 163.968C20.9252 163.485 21.1572 163.066 21.4355 162.712C21.7448 162.325 22.147 162.067 22.6419 161.938C23.3224 161.745 23.9101 161.906 24.405 162.422C24.7452 162.808 24.9927 163.324 25.1473 163.968C25.3329 164.613 25.4566 165.321 25.5185 166.095C25.5804 166.836 25.6113 167.625 25.6113 168.463C25.6113 169.268 25.6113 170.025 25.6113 170.734V177.307H28.6271V167.4C28.6271 166.948 28.6116 166.433 28.5807 165.853C28.5807 165.241 28.6426 164.661 28.7663 164.113C28.89 163.533 29.1066 163.05 29.4159 162.663C29.7561 162.244 30.251 162.003 30.9006 161.938C31.5501 161.842 32.0914 162.051 32.5245 162.567C32.8957 162.953 33.1586 163.469 33.3132 164.113C33.4988 164.758 33.6225 165.45 33.6844 166.191C33.7772 166.9 33.8081 167.625 33.7772 168.366C33.7772 169.075 33.7772 169.703 33.7772 170.251V195.575ZM8.5835 192.144C9.07839 192.144 9.54236 191.95 9.97541 191.564C10.4085 191.177 10.7178 190.662 10.9034 190.017C11.0889 189.373 11.2281 188.68 11.3209 187.939C11.5684 186.425 11.6921 184.895 11.6921 183.348C11.723 181.769 11.7076 180.207 11.6457 178.66C11.6148 177.436 11.5529 176.195 11.4601 174.939C11.3983 173.682 11.1353 172.538 10.6714 171.507C10.4239 170.96 10.1146 170.541 9.74343 170.251C9.40317 169.961 9.03199 169.848 8.62989 169.913C8.19684 169.977 7.79474 170.186 7.42356 170.541C7.0833 170.863 6.80492 171.346 6.58841 171.991C6.52654 172.152 6.4647 172.329 6.40282 172.522C6.3719 172.683 6.32551 172.845 6.26363 173.006C6.07804 173.586 5.93885 174.133 5.84606 174.649C5.78418 175.132 5.73778 175.696 5.70686 176.34C5.64499 177.017 5.59859 177.694 5.56767 178.37C5.53675 179.015 5.53675 179.675 5.56767 180.352C5.56767 180.996 5.5522 181.56 5.52128 182.043C5.49036 182.526 5.5058 183.09 5.56767 183.735C5.59859 184.572 5.66047 185.491 5.75326 186.489C5.84606 187.456 6.00073 188.358 6.21724 189.196C6.43374 190.033 6.7276 190.742 7.09878 191.322C7.46996 191.87 7.96485 192.144 8.5835 192.144ZM45.6243 188.181C45.5315 188.632 45.5315 189.115 45.6243 189.631V190.211C45.6243 190.436 45.7171 190.613 45.9027 190.742C46.0883 190.936 46.3202 191.032 46.5986 191.032H53.3726C53.7126 191.032 54.053 191.064 54.3934 191.129C54.7645 191.161 55.1201 191.177 55.4605 191.177C55.8005 191.177 56.1101 191.193 56.3885 191.226C56.6668 191.226 56.914 191.226 57.1308 191.226C57.378 191.29 57.6412 191.338 57.9196 191.371C58.1979 191.371 58.4763 191.435 58.7547 191.564C59.3115 191.596 59.8218 191.805 60.2858 192.192C60.533 192.418 60.7034 192.611 60.7958 192.772C60.8578 192.933 60.9042 193.094 60.9354 193.255C60.9662 193.384 61.0126 193.529 61.0746 193.69V194.609C61.0126 194.995 60.9198 195.35 60.7958 195.672C60.7034 195.994 60.533 196.284 60.2858 196.542C60.131 196.799 59.8991 197.009 59.5899 197.17C59.3115 197.331 59.0019 197.444 58.6619 197.508C58.4143 197.508 58.1824 197.54 57.966 197.605C57.7804 197.637 57.5636 197.653 57.3164 197.653C57.1308 197.653 56.9296 197.685 56.7132 197.75C56.4965 197.782 56.2645 197.798 56.0173 197.798H55.1357C54.9501 197.798 54.7334 197.798 54.4862 197.798C54.2694 197.766 54.0222 197.718 53.7438 197.653H44.9747C44.6344 197.653 44.3252 197.637 44.0468 197.605C43.7684 197.54 43.4744 197.508 43.1652 197.508C42.9177 197.444 42.6701 197.412 42.4225 197.412C42.1753 197.379 41.9277 197.315 41.6805 197.218C41.2165 197.122 40.8142 196.896 40.4742 196.542C40.2574 196.316 40.103 196.107 40.0102 195.913C39.9174 195.688 39.8246 195.495 39.7318 195.333C39.6079 195.108 39.5307 194.899 39.4998 194.705C39.4687 194.48 39.4223 194.238 39.3603 193.98C39.2059 193.465 39.1131 192.949 39.0823 192.434C39.0511 191.886 39.0359 191.371 39.0359 190.887C39.0667 190.34 39.0823 189.792 39.0823 189.244C39.0823 188.664 39.0823 188.084 39.0823 187.504V172.571C39.0823 172.41 39.0667 172.184 39.0359 171.894C39.0359 171.572 39.0359 171.266 39.0359 170.976V168.898C39.0359 168.576 39.0359 168.253 39.0359 167.931C39.0667 167.609 39.0823 167.319 39.0823 167.061C39.0823 166.739 39.1287 166.417 39.2215 166.095C39.3451 165.74 39.4379 165.386 39.4998 165.031C39.7782 164.323 40.3194 163.775 41.1238 163.388C41.2782 163.356 41.4329 163.324 41.5877 163.292C41.7733 163.259 41.9741 163.243 42.1909 163.243C42.5001 163.147 42.8557 163.147 43.258 163.243C43.4436 163.308 43.6292 163.372 43.8148 163.437C44.0004 163.501 44.1704 163.582 44.3252 163.678C44.5108 163.839 44.6652 164 44.7891 164.162C44.9127 164.323 44.9899 164.5 45.0211 164.693C45.2683 165.144 45.3923 165.628 45.3923 166.143C45.4539 166.401 45.5003 166.658 45.5315 166.916C45.5931 167.142 45.6243 167.432 45.6243 167.786V188.181ZM69.9365 196.058C69.8745 196.252 69.8437 196.429 69.8437 196.59C69.8437 196.751 69.8125 196.944 69.7509 197.17C69.7509 197.363 69.7353 197.557 69.7045 197.75C69.6733 197.911 69.6269 198.072 69.5653 198.233C69.4725 198.362 69.4261 198.475 69.4261 198.572C69.3641 198.765 69.3021 198.878 69.2405 198.91C69.1477 199.168 69.0237 199.377 68.8693 199.538C68.7454 199.731 68.6062 199.908 68.4517 200.07C67.6474 200.488 66.8587 200.585 66.0855 200.36C65.6523 200.328 65.2503 200.118 64.8792 199.731C64.7244 199.667 64.6008 199.538 64.508 199.345C64.4152 199.151 64.3376 198.958 64.276 198.765C64.214 198.507 64.152 198.314 64.0904 198.185C64.0284 198.024 63.9664 197.83 63.9048 197.605C63.8736 197.379 63.8584 197.202 63.8584 197.073C63.8584 196.912 63.8584 196.767 63.8584 196.638V167.255C63.7036 166.514 63.7036 165.837 63.8584 165.225C63.8584 164.87 63.8892 164.548 63.9512 164.258C64.044 163.936 64.152 163.646 64.276 163.388C64.4304 162.905 64.7088 162.502 65.1111 162.18C65.6367 161.858 66.2399 161.697 66.9206 161.697C67.5702 161.697 68.1114 161.874 68.5445 162.228C68.9157 162.551 69.2093 163.05 69.4261 163.727C69.5497 163.984 69.6269 164.274 69.6581 164.596C69.7197 164.919 69.7817 165.289 69.8437 165.708C69.9053 166.062 69.9365 166.417 69.9365 166.771C69.9365 167.093 69.9365 167.4 69.9365 167.69V196.058ZM88.3094 181.85C88.0927 181.882 87.6287 181.898 86.9175 181.898C86.2059 181.898 85.448 181.898 84.6437 181.898C83.8397 181.866 83.0665 181.85 82.3242 181.85C81.6126 181.85 81.1331 181.85 80.8859 181.85H80.8395C80.2827 181.85 79.7259 181.85 79.1688 181.85C78.6432 181.818 78.1328 181.769 77.638 181.705C77.1429 181.608 76.6945 181.463 76.2925 181.27C75.8902 181.077 75.5654 180.787 75.3182 180.4C75.0398 179.981 74.8386 179.449 74.715 178.805C74.6222 178.161 74.5447 177.549 74.483 176.969C74.4519 176.356 74.4366 175.825 74.4366 175.374C74.4674 174.923 74.483 174.681 74.483 174.649V173.586C74.483 173.231 74.483 172.828 74.483 172.377C74.483 171.926 74.4983 171.427 74.5294 170.879C74.5294 170.299 74.5294 169.784 74.5294 169.333C74.5602 168.882 74.5755 168.479 74.5755 168.124V167.061C74.5755 166.965 74.5755 166.787 74.5755 166.53C74.5755 166.272 74.591 165.998 74.6222 165.708C74.653 165.386 74.6994 165.08 74.7614 164.79C74.823 164.468 74.9158 164.21 75.0398 164.017C75.3182 163.565 75.5966 163.243 75.8749 163.05C76.1841 162.824 76.5709 162.663 77.0349 162.567C77.1893 162.534 77.4213 162.518 77.7308 162.518C78.04 162.486 78.334 162.454 78.6124 162.422C78.9524 162.389 79.3083 162.373 79.6795 162.373H89.7013C90.3817 162.373 91.0933 162.438 91.8356 162.567C92.6088 162.663 93.2892 162.905 93.8771 163.292C94.3411 163.582 94.6658 163.952 94.8514 164.403C95.037 164.854 95.1606 165.338 95.2226 165.853C95.2842 166.369 95.2998 166.9 95.269 167.448C95.2378 167.963 95.2226 168.447 95.2226 168.898C95.2226 169.413 95.207 169.768 95.1762 169.961C95.1762 170.122 95.1914 170.46 95.2226 170.976V173.634C95.1914 173.795 95.1762 173.972 95.1762 174.166C95.207 174.359 95.2226 174.552 95.2226 174.745C95.1606 175.164 95.145 175.583 95.1762 176.002C95.207 176.389 95.2226 176.807 95.2226 177.259C95.2226 177.613 95.1914 178 95.1298 178.418C95.0986 178.805 95.0059 179.208 94.8514 179.627C94.7275 180.013 94.5419 180.368 94.2947 180.69C94.0779 181.012 93.7843 181.238 93.4131 181.367C92.6088 181.721 91.758 181.898 90.8613 181.898C89.9949 181.866 89.1446 181.85 88.3094 181.85ZM105.94 196.783C106.435 196.816 106.868 196.944 107.24 197.17C107.611 197.363 107.873 197.718 108.028 198.233C108.368 199.425 107.966 200.231 106.822 200.65C106.451 200.811 106.064 200.908 105.662 200.94C105.291 200.972 104.95 200.988 104.641 200.988H83.5305C82.9117 200.988 82.2622 200.988 81.5818 200.988C80.9011 200.988 80.2207 200.972 79.5403 200.94C78.7052 200.908 78.1172 200.633 77.7772 200.118C77.4677 199.603 77.2821 198.974 77.2205 198.233L77.0349 195.044C77.0037 194.689 77.0037 194.27 77.0349 193.787C77.0965 193.271 77.2669 192.837 77.5452 192.482C77.9781 192.031 78.4732 191.741 79.03 191.612C79.5867 191.483 80.2051 191.419 80.8859 191.419H82.3242C82.4786 191.419 82.6025 191.435 82.6953 191.467C82.7881 191.467 82.8809 191.467 82.9737 191.467H102.739V189.776H82.5098C82.355 189.776 82.185 189.776 81.9994 189.776C81.8446 189.743 81.6746 189.743 81.489 189.776H80.3755C80.0659 189.776 79.7875 189.776 79.5403 189.776C79.2928 189.776 79.0452 189.743 78.798 189.679C78.5196 189.615 78.2564 189.55 78.0092 189.486C77.7925 189.421 77.6069 189.26 77.4525 189.002C77.2669 188.648 77.1429 188.31 77.0813 187.988C77.0193 187.665 77.0501 187.311 77.1741 186.924C77.2669 186.667 77.4061 186.473 77.5916 186.344C77.7772 186.183 77.9936 186.054 78.2412 185.958C78.4884 185.861 78.7204 185.797 78.9372 185.764C79.1844 185.7 79.4011 185.652 79.5867 185.619C79.8339 185.587 80.0659 185.571 80.2827 185.571C80.5299 185.539 80.7775 185.523 81.025 185.523H81.8138C81.9682 185.555 82.1074 185.571 82.2314 185.571C82.3858 185.571 82.5406 185.571 82.6953 185.571H103.203C104.78 185.571 105.987 185.829 106.822 186.344C107.657 186.828 108.075 187.633 108.075 188.761V192.144C108.075 192.595 107.966 193.03 107.75 193.449C107.564 193.868 107.224 194.238 106.729 194.56C106.327 194.818 105.925 194.963 105.523 194.995C105.12 194.995 104.718 194.995 104.316 194.995H82.7417V196.783H105.94ZM108.075 179.772C108.043 180.126 107.997 180.497 107.935 180.883C107.873 181.238 107.75 181.592 107.564 181.946C107.348 182.365 107.085 182.671 106.776 182.865C106.559 183.026 106.389 183.155 106.265 183.251C106.172 183.348 105.987 183.396 105.708 183.396C105.492 183.396 105.182 183.364 104.78 183.3C104.409 183.235 104.131 183.139 103.945 183.01C103.512 182.752 103.172 182.349 102.925 181.801C102.677 181.254 102.553 180.754 102.553 180.303V175.084C102.027 175.084 101.486 175.068 100.929 175.035C100.404 174.971 99.9704 174.907 99.6304 174.842C98.7332 174.713 97.9909 174.439 97.4033 174.021C96.8465 173.569 96.6453 172.812 96.8001 171.749C96.9237 171.04 97.1249 170.509 97.4033 170.154C97.7125 169.768 98.2073 169.558 98.888 169.526C99.1044 169.526 99.3056 169.526 99.4912 169.526C99.7076 169.494 99.9395 169.478 100.187 169.478C100.558 169.478 100.945 169.478 101.347 169.478C101.749 169.445 102.151 169.429 102.553 169.429V165.805C102.553 165.74 102.538 165.579 102.507 165.321C102.507 165.064 102.507 164.79 102.507 164.5C102.507 164.178 102.522 163.872 102.553 163.582C102.615 163.259 102.693 163.002 102.785 162.808C102.94 162.518 103.172 162.277 103.481 162.083C103.791 161.858 104.162 161.713 104.595 161.648C105.12 161.584 105.6 161.616 106.033 161.745C106.497 161.874 106.853 162.083 107.1 162.373C107.533 162.857 107.812 163.356 107.935 163.872C108.028 164.194 108.075 164.661 108.075 165.273C108.105 165.885 108.105 166.369 108.075 166.723V169.333C108.075 170.299 108.09 171.218 108.121 172.087C108.152 172.925 108.167 173.763 108.167 174.601C108.198 175.406 108.198 176.228 108.167 177.065C108.167 177.903 108.136 178.805 108.075 179.772ZM82.8345 168.414C82.5562 168.414 82.293 168.414 82.0458 168.414C81.829 168.414 81.6282 168.447 81.4426 168.511C81.0095 168.543 80.6539 168.737 80.3755 169.091C80.2515 169.252 80.1743 169.494 80.1435 169.816C80.1435 170.138 80.1435 170.331 80.1435 170.396V171.459C80.1123 171.717 80.0971 171.959 80.0971 172.184C80.0971 172.377 80.0971 172.555 80.0971 172.716V173.296C80.0971 173.296 80.0971 173.392 80.0971 173.586C80.0971 173.779 80.0971 174.004 80.0971 174.262C80.1279 174.52 80.1743 174.778 80.2363 175.035C80.2979 175.293 80.4063 175.519 80.5611 175.712C80.8083 176.034 81.2106 176.228 81.7674 176.292C82.3242 176.324 82.8809 176.34 83.4377 176.34H83.4841C83.8861 176.34 84.2109 176.34 84.4584 176.34C84.7368 176.34 84.9996 176.34 85.2472 176.34C85.4944 176.34 85.742 176.34 85.9895 176.34C86.2679 176.34 86.6235 176.34 87.0567 176.34C87.3039 176.34 87.5515 176.356 87.799 176.389C88.0774 176.389 88.3402 176.356 88.5878 176.292C88.835 176.26 89.0054 176.179 89.0982 176.05C89.191 175.922 89.2682 175.76 89.3302 175.567C89.3918 175.309 89.423 175.1 89.423 174.939C89.5466 174.327 89.6085 173.634 89.6085 172.861C89.6085 172.345 89.6085 171.991 89.6085 171.797C89.6394 171.604 89.6394 171.25 89.6085 170.734C89.5774 170.476 89.5621 170.219 89.5621 169.961C89.5929 169.703 89.5774 169.445 89.5157 169.188C89.3918 168.833 89.191 168.64 88.9126 168.608C88.6342 168.543 88.3558 168.511 88.0774 168.511L82.8345 168.414ZM141.288 181.801C141.814 181.834 142.34 181.914 142.866 182.043C143.422 182.172 143.917 182.414 144.35 182.768C144.783 183.122 145 183.622 145 184.266C145 184.588 144.938 184.943 144.814 185.329C144.722 185.716 144.582 185.99 144.397 186.151C144.149 186.409 143.824 186.602 143.423 186.731C143.051 186.828 142.68 186.908 142.309 186.973C141.938 187.005 141.613 187.021 141.335 187.021C141.087 187.021 140.948 187.021 140.917 187.021L116.187 187.069C115.476 187.101 114.733 187.101 113.96 187.069C113.218 187.037 112.584 186.795 112.058 186.344C111.346 185.797 110.991 185.168 110.991 184.46C110.991 184.008 111.13 183.557 111.408 183.106C111.718 182.623 112.12 182.301 112.615 182.14C113.264 181.914 113.929 181.818 114.61 181.85C115.29 181.85 115.986 181.834 116.698 181.801C117.44 181.769 118.074 181.753 118.6 181.753C119.157 181.753 119.682 181.753 120.177 181.753C120.703 181.753 121.245 181.769 121.801 181.801C122.358 181.801 123.023 181.801 123.796 181.801V179.385H120.827H120.038C119.574 179.385 119.064 179.385 118.507 179.385C117.95 179.353 117.394 179.288 116.837 179.192C116.311 179.095 115.816 178.966 115.352 178.805C114.888 178.612 114.501 178.354 114.192 178.032C113.883 177.774 113.651 177.42 113.496 176.969C113.372 176.485 113.279 176.018 113.218 175.567C113.156 175.116 113.125 174.729 113.125 174.407C113.156 174.053 113.171 173.859 113.171 173.827V164.983C113.171 164.951 113.171 164.854 113.171 164.693C113.171 164.5 113.171 164.29 113.171 164.065C113.202 163.807 113.249 163.565 113.311 163.34C113.372 163.114 113.45 162.937 113.543 162.808C113.79 162.454 114.037 162.212 114.285 162.083C114.563 161.922 114.919 161.81 115.352 161.745C115.661 161.681 115.986 161.648 116.326 161.648H116.93H137.53C137.808 161.648 138.071 161.665 138.319 161.697C138.597 161.697 138.876 161.729 139.154 161.793C139.432 161.858 139.695 161.922 139.943 161.987C140.19 162.051 140.422 162.196 140.639 162.422C140.824 162.583 140.963 162.76 141.056 162.953C141.149 163.147 141.226 163.34 141.288 163.533C141.35 163.727 141.381 163.92 141.381 164.113C141.412 164.274 141.396 164.451 141.335 164.645C141.273 165.16 141.025 165.595 140.592 165.95C140.19 166.272 139.664 166.433 139.015 166.433H119.203V168.318C119.512 168.318 120.023 168.318 120.734 168.318C121.445 168.318 122.25 168.318 123.147 168.318C124.044 168.318 124.956 168.318 125.884 168.318C126.843 168.318 127.725 168.318 128.529 168.318C129.333 168.318 129.983 168.318 130.478 168.318C131.003 168.318 131.266 168.318 131.266 168.318H135.535C135.659 168.318 135.798 168.334 135.953 168.366C136.107 168.366 136.262 168.35 136.417 168.318H137.623C137.932 168.318 138.257 168.35 138.597 168.414C138.937 168.447 139.247 168.543 139.525 168.704C139.958 168.898 140.236 169.204 140.36 169.623C140.515 170.041 140.561 170.428 140.499 170.783C140.468 170.976 140.437 171.169 140.407 171.362C140.407 171.556 140.329 171.733 140.175 171.894C139.834 172.281 139.479 172.522 139.108 172.619C138.767 172.716 138.396 172.764 137.994 172.764H119.157L119.203 173.972C119.172 174.327 119.188 174.456 119.25 174.359C119.311 174.262 119.389 174.23 119.481 174.262C119.667 174.359 119.992 174.439 120.456 174.504C120.951 174.536 121.461 174.552 121.987 174.552H122.219C122.373 174.552 122.745 174.552 123.332 174.552C123.92 174.52 124.616 174.504 125.42 174.504C126.224 174.504 127.075 174.504 127.972 174.504C128.9 174.504 129.766 174.504 130.57 174.504C131.374 174.504 132.07 174.52 132.658 174.552C133.246 174.552 133.617 174.552 133.772 174.552H135.953C136.2 174.552 136.401 174.536 136.556 174.504H137.344C137.808 174.504 138.272 174.52 138.736 174.552C139.231 174.552 139.711 174.617 140.175 174.745C140.236 174.745 140.314 174.762 140.407 174.794C140.499 174.826 140.577 174.858 140.639 174.89C141.01 175.116 141.273 175.406 141.427 175.76C141.613 176.115 141.69 176.485 141.659 176.872C141.628 177.259 141.489 177.613 141.242 177.935C141.025 178.257 140.716 178.515 140.314 178.708C139.695 178.998 139.015 179.192 138.272 179.288C137.561 179.353 136.896 179.385 136.277 179.385H134.375C134.127 179.417 133.601 179.433 132.798 179.433C131.993 179.433 131.174 179.433 130.338 179.433C130.369 179.82 130.385 180.223 130.385 180.642C130.385 181.06 130.385 181.447 130.385 181.801C131.251 181.801 132.179 181.801 133.169 181.801C134.158 181.769 135.148 181.753 136.138 181.753C137.128 181.753 138.071 181.753 138.968 181.753C139.865 181.753 140.639 181.769 141.288 181.801ZM138.551 188.712C139.819 188.712 140.793 188.922 141.474 189.341C142.185 189.76 142.541 190.34 142.541 191.081V194.367C142.541 194.528 142.541 194.85 142.541 195.333C142.572 195.785 142.587 196.284 142.587 196.832C142.587 197.347 142.587 197.847 142.587 198.33C142.587 198.813 142.572 199.151 142.541 199.345C142.479 200.021 142.216 200.569 141.752 200.988C141.319 201.407 140.747 201.616 140.035 201.616C139.695 201.616 139.37 201.568 139.061 201.471C138.628 201.342 138.288 201.149 138.04 200.891C137.824 200.633 137.654 200.343 137.53 200.021C137.437 199.699 137.36 199.361 137.298 199.006C137.267 198.62 137.252 198.249 137.252 197.895C137.252 197.766 137.236 197.54 137.205 197.218C137.205 196.864 137.19 196.509 137.159 196.155C137.159 195.801 137.143 195.462 137.112 195.14C137.112 194.818 137.097 194.592 137.066 194.464C136.973 194.431 136.71 194.399 136.277 194.367C135.875 194.335 135.102 194.319 133.957 194.319C133.432 194.319 132.968 194.335 132.566 194.367C132.163 194.367 131.792 194.367 131.452 194.367H130.431H114.935C114.903 194.367 114.78 194.335 114.563 194.27C114.378 194.206 114.161 194.109 113.914 193.98C113.666 193.851 113.434 193.674 113.218 193.449C113.001 193.223 112.878 192.933 112.847 192.579C112.661 191.387 112.847 190.42 113.403 189.679C113.775 189.228 114.177 188.97 114.61 188.906C115.043 188.809 115.275 188.761 115.306 188.761L138.551 188.712Z" fill="white"/>
</svg>
