<svg width="136" height="131" viewBox="0 0 136 131" fill="none" xmlns="http://www.w3.org/2000/svg">
<path d="M45.1562 55.2491V52.0664C45.1562 50.9659 44.2645 50.0742 43.1641 50.0742C42.0636 50.0742 41.1719 50.9659 41.1719 52.0664V55.2491C41.1719 56.3496 42.0636 57.2413 43.1641 57.2413C44.2645 57.2413 45.1562 56.3496 45.1562 55.2491Z" fill="#EDA751"/>
<path d="M37.0502 65.7243C34.2428 66.4699 28.9455 69.1307 26.8893 70.649C26.004 71.3027 25.8162 72.5498 26.4696 73.4349C26.8604 73.964 27.4631 74.2442 28.074 74.2442C28.4852 74.2442 28.8995 74.1173 29.2555 73.8546C30.9491 72.6043 35.7951 70.1799 38.0729 69.5754C39.1362 69.293 39.7694 68.2021 39.487 67.1385C39.2047 66.0752 38.1138 65.4422 37.0502 65.7243Z" fill="#EDA751"/>
<path d="M96.6627 73.0801C91.321 73.0801 86.9751 77.4259 86.9751 82.7676C86.9751 88.1093 91.321 92.4552 96.6627 92.4552C102.004 92.4552 106.35 88.1093 106.35 82.7676C106.351 77.4262 102.005 73.0801 96.6627 73.0801ZM96.6627 88.4711C93.5177 88.4711 90.9592 85.9126 90.9592 82.7676C90.9592 79.6227 93.5177 77.0642 96.6627 77.0642C99.8077 77.0642 102.366 79.6227 102.366 82.7676C102.366 85.9126 99.8077 88.4711 96.6627 88.4711Z" fill="#EDA751"/>
<path d="M83.5029 55.2491V52.0664C83.5029 50.9659 82.6112 50.0742 81.5107 50.0742C80.4103 50.0742 79.5186 50.9659 79.5186 52.0664V55.2491C79.5186 56.3496 80.4103 57.2413 81.5107 57.2413C82.6112 57.2413 83.5029 56.3496 83.5029 55.2491Z" fill="#EDA751"/>
<path d="M128.977 58.8066H110.541C110.275 54.5807 109.283 50.4705 107.619 46.5748C113.096 38.391 114.604 28.3366 111.739 18.8004C110.834 15.7861 108.229 13.6003 105.103 13.2319C95.6026 12.112 86.25 15.083 79.2372 21.3982C72.8766 19.1263 65.9709 17.9305 58.8511 17.9305C51.7279 17.9305 44.8227 19.1258 38.4637 21.3972C31.4512 15.0827 22.1007 12.1128 12.5994 13.2319C9.47325 13.6003 6.86855 15.7861 5.96303 18.8007C3.09934 28.3339 4.60543 38.3854 10.0791 46.5682C8.10927 51.1778 7.08211 56.0874 7.08211 61.1324C7.08211 71.0444 11.0019 79.1074 18.7318 85.0967C19.0949 85.378 19.5242 85.5142 19.9508 85.514C20.5455 85.514 21.1344 85.2486 21.527 84.7421C22.2009 83.8724 22.042 82.6211 21.1724 81.9472C14.4665 76.7516 11.0662 69.7487 11.0662 61.1326C11.0662 39.5082 32.5023 21.9151 58.8511 21.9151C65.8538 21.9151 72.6253 23.1476 78.8045 25.483C78.9243 25.5425 79.0484 25.589 79.1756 25.6227C83.0989 27.1394 86.7772 29.1042 90.1167 31.485C90.1318 31.4959 90.1467 31.5076 90.1621 31.518C91.0134 32.1265 91.8438 32.7608 92.6494 33.4227C97.4471 37.3657 101.099 42.0043 103.466 47.058C103.499 47.1478 103.54 47.2347 103.585 47.3194C105.259 50.9701 106.266 54.8336 106.548 58.8066H66.138C67.1766 58.3011 68.1174 57.5908 68.8947 56.6991C69.6177 55.8696 69.5308 54.6113 68.7015 53.8883C67.8715 53.1652 66.6132 53.2518 65.8907 54.0814C64.9937 55.1107 63.6985 55.7012 62.3375 55.7012C60.9764 55.7012 59.6815 55.1107 58.7845 54.0814C58.0612 53.2521 56.8029 53.1658 55.9736 53.8883C55.1444 54.6113 55.0578 55.8696 55.7805 56.6991C57.1642 58.2867 59.0634 59.3049 61.118 59.5963C58.8671 60.7674 57.3254 63.1208 57.3254 65.8289V87.1091C54.2189 85.3044 50.6813 84.3402 46.9052 84.2993C42.1004 84.2515 37.2336 85.7546 33.4254 88.2329C31.83 87.7009 30.2944 87.1122 28.8577 86.4708C27.8531 86.0224 26.6751 86.4732 26.2267 87.478C25.7783 88.4826 26.2291 89.6606 27.2339 90.109C28.0776 90.4857 28.953 90.844 29.849 91.1864C28.9913 92.0951 28.2566 93.0694 27.6783 94.0974C26.5874 96.0372 26.3167 98.2857 26.9168 100.428C27.095 101.065 27.345 101.668 27.6571 102.232C27.7139 103.494 27.8581 104.755 28.0882 105.997C27.7941 106.666 27.6278 107.402 27.6278 108.178V112.696C27.6278 113.773 27.9469 114.776 28.4898 115.621C26.2184 116.768 24.935 116.239 23.8183 115.565C21.6261 114.241 20.8908 111.962 19.7362 107.077C18.6819 102.618 17.306 96.8091 12.5444 92.4441C12.5221 92.4229 12.499 92.4027 12.4756 92.3822C11.4413 91.4432 10.2515 90.5709 8.86949 89.7958C7.48134 89.017 5.87458 88.826 4.34299 89.2572C2.81247 89.688 1.54119 90.6894 0.763446 92.0765C-0.014301 93.4636 -0.20555 95.0706 0.225292 96.6017C0.655868 98.1327 1.65727 99.4043 3.04436 100.182C3.72382 100.563 4.29013 100.985 4.77676 101.475C4.83652 101.547 4.89974 101.614 4.96721 101.675C6.46931 103.316 7.1764 105.711 8.14726 109.817C9.40047 115.116 10.9597 121.711 17.6632 125.759C20.3357 127.372 23.1694 128.19 26.0856 128.19C29.6469 128.19 33.2322 126.955 36.7422 124.521C37.3417 124.105 37.941 123.649 38.5487 123.154C44.1396 127.623 51.3074 130.157 58.8514 130.157H101.536C106.13 130.157 109.867 126.42 109.867 121.826C109.867 120.511 109.561 119.254 109.006 118.129H130.566C133.562 118.129 136 115.692 136 112.696V65.8289C135.999 61.9566 132.849 58.8066 128.977 58.8066ZM22.3831 30.4578C18.1291 33.9798 14.7015 38.0087 12.176 42.3825C7.99373 34.9559 8.20224 27.6978 9.03099 23.0979C13.1973 24.0178 18.45 25.9056 23.2493 29.7579C22.9579 29.9885 22.6689 30.2214 22.3831 30.4578ZM26.5773 27.3415C21.0483 22.6161 14.9111 20.3392 10.0672 19.2477C10.6601 18.1239 11.7717 17.3413 13.0653 17.1886C20.7508 16.2847 28.3219 18.4177 34.2804 23.082C31.5811 24.2983 29.0043 25.7218 26.5773 27.3415ZM6.38963 97.6169C5.96224 97.2952 5.49978 96.9905 4.99297 96.7063C4.53451 96.4492 4.20301 96.0284 4.06064 95.5222C3.918 95.0156 3.98121 94.4838 4.23887 94.0246C4.49626 93.5656 4.91674 93.2343 5.42275 93.0917C5.9285 92.9493 6.46055 93.0123 6.92034 93.2705C7.58998 93.6461 8.20118 94.0501 8.76563 94.4767C8.06704 95.881 7.17933 96.9061 6.38963 97.6169ZM91.1239 27.3421C88.6969 25.7226 86.119 24.3002 83.4192 23.0833C89.3782 18.4179 96.9504 16.2842 104.636 17.1886C105.93 17.3413 107.042 18.1239 107.635 19.2477C102.791 20.3392 96.6531 22.6161 91.1239 27.3421ZM105.525 42.3846C102.972 37.9604 99.4945 33.8908 95.1792 30.3444C94.9388 30.1468 94.695 29.9532 94.4506 29.7601C99.2509 25.9064 104.504 24.0183 108.671 23.0982C109.5 27.6983 109.709 34.9575 105.525 42.3846ZM31.1511 96.0513C33.6551 91.5994 40.2986 88.2826 46.6678 88.2826C46.7326 88.2826 46.7979 88.2828 46.8625 88.2836C50.7841 88.3259 54.382 89.5809 57.3257 91.919V102.744H55.1008C54.8373 102.465 54.6075 102.156 54.4237 101.812C52.7811 98.7402 50.4226 97.1634 47.215 96.9911C43.3905 96.7863 39.8258 98.7394 38.8194 100.171C38.7827 100.223 38.7487 100.277 38.7174 100.332C37.8066 101.934 35.978 102.79 34.1646 102.462C33.6904 102.376 33.2338 102.211 32.8078 101.971C32.1817 101.619 31.6645 101.128 31.2863 100.541C31.2775 100.528 31.2698 100.514 31.2608 100.501C31.0401 100.15 30.8679 99.765 30.7532 99.3546C30.4403 98.2366 30.5816 97.0633 31.1511 96.0513ZM50.322 102.744H41.9033C41.9614 102.655 42.0228 102.569 42.0778 102.478C42.5264 102.069 44.6097 100.838 47.0001 100.97C48.4493 101.048 49.4669 101.577 50.322 102.744ZM34.4714 121.246C31.6409 123.21 28.8194 124.205 26.0854 124.205C23.9051 124.205 21.7642 123.58 19.7224 122.348C14.4516 119.165 13.2178 113.946 12.0246 108.899C11.2856 105.773 10.6067 102.909 9.09341 100.542C9.94553 99.7682 10.8739 98.7346 11.6925 97.4057C14.1126 100.619 15.0243 104.464 15.8583 107.993C16.9561 112.637 17.9042 116.648 21.7586 118.975C23.8331 120.227 27.1659 121.488 32.1668 118.049C32.4585 118.097 32.7557 118.129 33.0609 118.129H33.5781C34.2036 118.932 34.8701 119.7 35.5713 120.432C35.2018 120.72 34.8356 120.994 34.4714 121.246ZM33.0609 114.145C32.2617 114.145 31.6117 113.495 31.6117 112.696V108.178C31.6117 107.891 31.6964 107.625 31.8406 107.4C31.8476 107.389 31.8534 107.378 31.86 107.368C32.1209 106.982 32.5618 106.729 33.0609 106.729H57.3254V114.145H33.0609ZM80.5106 126.173H58.8511C51.6987 126.173 44.9431 123.593 39.9122 119.094C39.8946 119.078 39.8768 119.061 39.8588 119.046C39.5281 118.748 39.2045 118.443 38.8892 118.129H82.7934C84.0753 118.918 84.8576 120.299 84.8576 121.826C84.8576 124.223 82.9074 126.173 80.5106 126.173ZM101.536 126.173H87.6148C88.3925 124.906 88.8419 123.418 88.8419 121.826C88.8419 120.51 88.5359 119.254 87.9808 118.129H103.819C105.101 118.918 105.883 120.299 105.883 121.826C105.883 124.223 103.933 126.173 101.536 126.173ZM132.015 102.744H126.791C125.691 102.744 124.799 103.636 124.799 104.736C124.799 105.837 125.691 106.729 126.791 106.729H132.015V112.696C132.015 113.495 131.365 114.145 130.566 114.145H61.31V106.729H117.526C118.627 106.729 119.518 105.837 119.518 104.736C119.518 103.636 118.627 102.744 117.526 102.744H61.31V65.8289C61.31 64.1536 62.6729 62.7907 64.3482 62.7907H128.977C130.653 62.7907 132.016 64.1536 132.016 65.8289V102.744H132.015Z" fill="#EDA751"/>
<path d="M35.9923 58.9578C33.1132 58.5772 27.2017 59.0192 24.7213 59.6391C23.6538 59.9061 23.0051 60.9877 23.2718 62.0553C23.4984 62.9602 24.3104 63.5648 25.2032 63.5648C25.3633 63.5648 25.5259 63.5454 25.6879 63.5048C27.7303 62.994 33.1339 62.5993 35.4703 62.9079C36.5575 63.0516 37.5621 62.285 37.7064 61.1938C37.8506 60.1032 37.0832 59.1021 35.9923 58.9578Z" fill="#EDA751"/>
<path d="M62.6273 19.5635C64.6114 19.7965 66.5822 20.1329 68.5318 20.5715C74.5817 14.9567 75.7136 7.09661 75.8113 2.75785C75.8118 2.58121 75.7748 2.40628 75.7023 2.24457C75.6288 2.08045 75.5205 1.93365 75.3845 1.81433C75.2484 1.69499 75.0878 1.60598 74.9135 1.55367C74.7406 1.50176 74.5584 1.48728 74.3793 1.51122C66.4559 2.65631 60.8389 5.90742 57.2072 8.85606C55.3885 10.3327 54.0674 11.7339 53.2072 12.7566C52.7773 13.2676 52.4634 13.6832 52.2607 13.9649C52.1593 14.1057 52.0859 14.213 52.0398 14.2818C52.0167 14.3163 52.0005 14.3411 51.991 14.3558L51.9822 14.3695L51.9819 14.37L51.9817 14.3703L51.9811 14.3712L50.3831 16.9275L49.3091 14.1071C48.5417 12.0918 47.5705 10.16 46.4106 8.34145C45.1053 8.80367 43.8787 9.4612 42.7728 10.2911C45.0294 13.1718 46.9146 16.3226 48.3848 19.6695C50.873 19.3417 53.3803 19.1754 55.8908 19.1715L55.8927 19.1715C57.6427 17.031 62.2336 11.6222 66.3557 8.5108C66.7412 8.20462 67.225 8.04898 67.7169 8.0728C68.225 8.0974 68.7062 8.31184 69.0643 8.67488C69.4225 9.03803 69.6312 9.52331 69.6473 10.0344M62.6273 19.5635L68.1481 10.0817M62.6273 19.5635C64.1475 17.5538 65.6068 15.7767 66.9518 14.1389C67.7373 13.1824 68.4838 12.2734 69.1806 11.3933M62.6273 19.5635L68.019 10.444M69.6473 10.0344L68.1481 10.0817M69.6473 10.0344C69.6473 10.0344 69.6473 10.0344 69.6473 10.0344L68.1481 10.0817M69.6473 10.0344C69.663 10.5302 69.4962 11.0133 69.1806 11.3933M68.1481 10.0817C68.1522 10.2144 68.1062 10.3437 68.019 10.444M69.1806 11.3933C69.1855 11.3871 69.1904 11.381 69.1952 11.3748L68.019 10.444M69.1806 11.3933C69.1709 11.405 69.161 11.4166 69.151 11.4281L68.019 10.444" stroke="#EDA751" stroke-width="3"/>
</svg>
