<svg width="185" height="177" viewBox="0 0 185 177" fill="none" xmlns="http://www.w3.org/2000/svg">
<path d="M50.3992 89.0962C46.5803 90.1104 39.3744 93.7298 36.5773 95.7952C35.373 96.6844 35.1176 98.3808 36.0065 99.5848C36.538 100.305 37.3578 100.686 38.1889 100.686C38.7482 100.686 39.3119 100.513 39.796 100.156C42.0999 98.4549 48.6919 95.1571 51.7903 94.3347C53.2367 93.9506 54.0981 92.4666 53.714 91.0199C53.3299 89.5735 51.8459 88.7125 50.3992 89.0962Z" fill="#DBDBDB"/>
<path d="M175.447 79.6864H150.369C150.006 73.938 148.657 68.3469 146.393 63.0476C153.844 51.9152 155.895 38.2382 151.998 25.2662C150.766 21.1659 147.223 18.1926 142.97 17.6914C130.048 16.168 117.325 20.2095 107.786 28.8C99.1336 25.7096 89.7399 24.0829 80.0549 24.0829C70.3652 24.0829 60.9721 25.7089 52.322 28.7986C42.7829 20.2091 30.0635 16.1691 17.1389 17.6914C12.8864 18.1926 9.34324 21.1659 8.11148 25.2666C4.21602 38.2346 6.26474 51.9076 13.7106 63.0386C11.031 69.3091 9.63375 75.9875 9.63375 82.8501C9.63375 96.3334 14.9658 107.301 25.4808 115.449C25.9747 115.831 26.5586 116.017 27.1389 116.016C27.9479 116.016 28.749 115.655 29.2831 114.966C30.1997 113.783 29.9837 112.081 28.8007 111.164C19.6786 104.097 15.0533 94.5709 15.0533 82.8505C15.0533 53.4349 44.2127 29.5032 80.0549 29.5032C89.5805 29.5032 98.7918 31.1797 107.197 34.3565C107.36 34.4374 107.529 34.5007 107.702 34.5466C113.039 36.6097 118.043 39.2825 122.585 42.521C122.606 42.5358 122.626 42.5517 122.647 42.5658C123.805 43.3936 124.935 44.2565 126.03 45.1569C132.557 50.5204 137.524 56.8303 140.744 63.7049C140.788 63.827 140.844 63.9452 140.907 64.0604C143.183 69.0265 144.552 74.282 144.937 79.6864H117.452H89.9671C91.3799 78.9988 92.6597 78.0326 93.717 76.8196C94.7005 75.6912 94.5824 73.9796 93.4543 72.996C92.3251 72.0125 90.6135 72.1303 89.6307 73.2587C88.4105 74.6589 86.6487 75.4621 84.7973 75.4621C82.9458 75.4621 81.1844 74.6589 79.9642 73.2587C78.9803 72.1307 77.2687 72.0132 76.1406 72.996C75.0125 73.9796 74.8948 75.6912 75.8779 76.8196C77.7601 78.9792 80.3436 80.3642 83.1384 80.7606C80.0765 82.3537 77.9794 85.555 77.9794 89.2388V118.186C73.7537 115.731 68.9415 114.42 63.8049 114.364C57.2689 114.299 50.6487 116.344 45.4683 119.715C43.2982 118.991 41.2094 118.19 39.2549 117.318C37.8884 116.708 36.2859 117.321 35.676 118.688C35.0661 120.054 35.6793 121.657 37.0462 122.267C38.1937 122.779 39.3847 123.267 40.6034 123.732C39.4367 124.969 38.4373 126.294 37.6507 127.692C36.1667 130.331 35.7985 133.39 36.6147 136.304C36.8572 137.17 37.1972 137.991 37.6217 138.758C37.6991 140.475 37.8953 142.189 38.2082 143.88C37.8082 144.789 37.582 145.791 37.582 146.846V152.992C37.582 154.457 38.016 155.821 38.7545 156.971C35.6648 158.531 33.9189 157.811 32.3999 156.895C29.4178 155.094 28.4177 151.994 26.847 145.348C25.4129 139.282 23.5412 131.381 17.0641 125.443C17.0337 125.414 17.0023 125.387 16.9705 125.359C15.5635 124.082 13.9451 122.895 12.0651 121.841C10.1768 120.781 7.99116 120.522 5.90775 121.108C3.82578 121.694 2.09647 123.056 1.03851 124.943C-0.0194536 126.83 -0.279609 129.016 0.306463 131.099C0.892173 133.181 2.25437 134.911 4.14122 135.969C5.0655 136.488 5.83584 137.062 6.49779 137.728C6.57909 137.825 6.66509 137.917 6.75687 138C8.80017 140.232 9.76202 143.49 11.0827 149.076C12.7874 156.284 14.9084 165.255 24.0272 170.761C27.6625 172.956 31.5171 174.068 35.4841 174.068C40.3284 174.068 45.2056 172.389 49.9802 169.077C50.7957 168.511 51.6109 167.891 52.4376 167.218C60.0428 173.296 69.7932 176.744 80.0552 176.744H138.119C144.368 176.744 149.452 171.661 149.452 165.412C149.452 163.623 149.036 161.913 148.281 160.383H177.609C181.684 160.383 185 157.067 185 152.992V89.2388C184.999 83.9713 180.714 79.6864 175.447 79.6864ZM30.4476 41.1238C24.661 45.9146 19.9984 51.3952 16.5629 57.3448C10.8738 47.2425 11.1575 37.3692 12.2848 31.1121C17.9522 32.3634 25.0974 34.9314 31.6259 40.1717C31.2295 40.4853 30.8364 40.8022 30.4476 41.1238ZM36.153 36.8847C28.6319 30.4567 20.2835 27.3594 13.6943 25.8747C14.5008 24.3459 16.013 23.2815 17.7726 23.0737C28.2273 21.8441 38.5261 24.7456 46.6314 31.0905C42.9596 32.745 39.4544 34.6813 36.153 36.8847ZM8.69177 132.48C8.1104 132.042 7.48132 131.628 6.79191 131.241C6.16826 130.891 5.71733 130.319 5.52366 129.63C5.32963 128.941 5.41562 128.218 5.76611 127.593C6.11623 126.969 6.68821 126.518 7.37654 126.324C8.06451 126.131 8.78824 126.216 9.4137 126.567C10.3246 127.078 11.156 127.628 11.9238 128.208C10.9735 130.119 9.76599 131.513 8.69177 132.48ZM123.955 36.8854C120.654 34.6824 117.147 32.7475 113.475 31.0923C121.581 24.7459 131.881 21.8434 142.336 23.0737C144.096 23.2815 145.609 24.3459 146.415 25.8747C139.826 27.3594 131.477 30.4567 123.955 36.8854ZM143.545 57.3477C140.072 51.3295 135.342 45.7936 129.472 40.9695C129.145 40.7007 128.813 40.4373 128.481 40.1746C135.01 34.9325 142.156 32.3641 147.825 31.1125C148.953 37.37 149.236 47.2447 143.545 57.3477ZM42.3746 130.35C45.7809 124.294 54.818 119.782 63.4819 119.782C63.5701 119.782 63.6589 119.783 63.7467 119.784C69.0814 119.841 73.9755 121.549 77.9798 124.729V139.454H74.9533C74.5949 139.075 74.2823 138.654 74.0323 138.186C71.7978 134.008 68.5896 131.863 64.2262 131.629C59.0238 131.35 54.1748 134.007 52.8058 135.954C52.7559 136.025 52.7097 136.098 52.667 136.173C51.428 138.352 48.9407 139.517 46.4739 139.07C45.8289 138.954 45.2078 138.729 44.6282 138.402C43.7766 137.924 43.0731 137.257 42.5585 136.458C42.5466 136.44 42.5361 136.42 42.5239 136.403C42.2236 135.925 41.9895 135.402 41.8334 134.844C41.4077 133.323 41.6 131.727 42.3746 130.35ZM68.4527 139.454H57.0008C57.0799 139.334 57.1634 139.217 57.2382 139.092C57.8484 138.536 60.6823 136.862 63.9339 137.04C65.9053 137.147 67.2896 137.867 68.4527 139.454ZM46.8912 164.623C43.0409 167.294 39.2029 168.648 35.4838 168.648C32.518 168.648 29.6057 167.798 26.8282 166.121C19.6584 161.792 17.98 154.693 16.357 147.827C15.3517 143.575 14.4282 139.679 12.3697 136.458C13.5288 135.406 14.7917 134 15.9053 132.193C19.1973 136.564 20.4374 141.794 21.572 146.594C23.0653 152.911 24.3549 158.367 29.5981 161.533C32.4201 163.236 36.9537 164.952 43.7563 160.273C44.1531 160.339 44.5574 160.382 44.9726 160.382H45.6761C46.527 161.475 47.4336 162.519 48.3875 163.515C47.8849 163.907 47.3866 164.279 46.8912 164.623ZM44.9726 154.963C43.8853 154.963 43.0012 154.078 43.0012 152.991V146.846C43.0012 146.456 43.1164 146.094 43.3126 145.787C43.322 145.773 43.33 145.758 43.339 145.744C43.6938 145.219 44.2936 144.874 44.9726 144.874H77.9794V154.963H44.9726ZM109.518 171.324H80.0549C70.3254 171.324 61.1358 167.815 54.2923 161.696C54.2684 161.673 54.2442 161.651 54.2196 161.629C53.7698 161.224 53.3297 160.809 52.9008 160.382H112.623C114.367 161.456 115.431 163.334 115.431 165.411C115.431 168.671 112.778 171.324 109.518 171.324ZM138.119 171.324H119.182C120.24 169.601 120.851 167.577 120.851 165.411C120.851 163.622 120.435 161.912 119.68 160.382H141.224C142.968 161.456 144.032 163.334 144.032 165.411C144.032 168.671 141.379 171.324 138.119 171.324ZM179.58 139.454H172.473C170.976 139.454 169.763 140.667 169.763 142.164C169.763 143.661 170.976 144.874 172.473 144.874H179.579V152.991C179.579 154.078 178.695 154.963 177.608 154.963H83.3997V144.874H159.87C161.367 144.874 162.58 143.661 162.58 142.164C162.58 140.667 161.367 139.454 159.87 139.454H83.3997V89.2388C83.3997 86.9599 85.2536 85.1059 87.5325 85.1059H175.447C177.726 85.1059 179.58 86.9599 179.58 89.2388V139.454H179.58Z" fill="#DBDBDB"/>
<path d="M48.9598 79.8926C45.0433 79.3748 37.002 79.976 33.628 80.8194C32.1758 81.1825 31.2934 82.6538 31.6562 84.106C31.9644 85.337 33.069 86.1594 34.2834 86.1594C34.5013 86.1594 34.7224 86.133 34.9428 86.0777C37.7211 85.3829 45.0715 84.846 48.2498 85.2658C49.7287 85.4613 51.0952 84.4185 51.2914 82.9342C51.4876 81.4506 50.4437 80.0888 48.9598 79.8926Z" fill="#DBDBDB"/>
<path d="M111.19 104.533C111.358 104.797 111.466 105.133 111.514 105.541C111.634 106.381 111.682 107.245 111.658 108.133C111.658 108.997 111.67 109.849 111.694 110.689C111.694 111.673 111.694 112.645 111.694 113.605C111.718 114.565 111.73 115.537 111.73 116.521V119.581H113.278C113.542 119.581 113.818 119.617 114.106 119.689C114.394 119.737 114.658 119.833 114.898 119.977C115.138 120.121 115.342 120.301 115.51 120.517C115.678 120.733 115.774 120.997 115.798 121.309C115.798 122.077 115.558 122.605 115.078 122.893C114.598 123.157 114.022 123.313 113.35 123.361C113.302 123.361 113.194 123.373 113.026 123.397C112.882 123.397 112.714 123.397 112.522 123.397C112.33 123.397 112.15 123.397 111.982 123.397C111.838 123.397 111.754 123.373 111.73 123.325V125.773C111.73 126.037 111.73 126.337 111.73 126.673C111.73 127.009 111.706 127.345 111.658 127.681C111.61 127.993 111.514 128.293 111.37 128.581C111.25 128.869 111.058 129.097 110.794 129.265C110.674 129.337 110.518 129.397 110.326 129.445C110.158 129.469 109.966 129.493 109.75 129.517C109.534 129.541 109.318 129.553 109.102 129.553C108.91 129.529 108.742 129.493 108.598 129.445C108.166 129.301 107.89 129.001 107.77 128.545C107.65 128.065 107.566 127.621 107.518 127.213C107.518 127.141 107.518 126.913 107.518 126.529C107.518 126.121 107.518 125.701 107.518 125.269C107.518 124.813 107.506 124.405 107.482 124.045C107.458 123.685 107.422 123.505 107.374 123.505H101.038C100.342 123.505 99.6101 123.493 98.8421 123.469C98.0741 123.445 97.4141 123.229 96.8621 122.821C96.4301 122.509 96.1781 122.161 96.1061 121.777C96.0341 121.369 96.0581 120.973 96.1781 120.589C96.3221 120.181 96.5261 119.785 96.7901 119.401C97.0541 119.017 97.3061 118.669 97.5461 118.357C98.4581 117.133 99.3341 115.885 100.174 114.613C101.038 113.341 101.902 112.081 102.766 110.833C103.246 110.185 103.738 109.561 104.242 108.961C104.77 108.361 105.262 107.737 105.718 107.089C106.054 106.585 106.414 106.069 106.798 105.541C107.206 105.013 107.71 104.605 108.31 104.317C108.886 104.053 109.438 103.921 109.966 103.921C110.494 103.921 110.902 104.125 111.19 104.533ZM107.626 111.013L101.65 119.437H107.626V111.013ZM132.968 129.553C132.536 129.553 132.092 129.529 131.636 129.481C131.204 129.409 130.772 129.289 130.34 129.121C129.692 128.857 129.068 128.509 128.468 128.077C127.892 127.621 127.364 127.117 126.884 126.565C125.732 125.269 124.856 123.745 124.256 121.993C123.656 120.217 123.356 118.417 123.356 116.593C123.356 114.097 123.836 111.685 124.796 109.357C124.964 108.949 125.18 108.517 125.444 108.061C125.732 107.605 126.044 107.173 126.38 106.765C126.74 106.333 127.1 105.949 127.46 105.613C127.844 105.277 128.228 105.025 128.612 104.857C129.14 104.617 129.716 104.377 130.34 104.137C131.108 103.897 131.972 103.789 132.932 103.813C133.892 103.837 134.768 103.945 135.56 104.137C136.664 104.401 137.612 104.881 138.404 105.577C139.196 106.249 139.868 107.065 140.42 108.025C140.972 108.961 141.404 109.993 141.716 111.121C142.028 112.225 142.256 113.353 142.4 114.505C142.496 115.273 142.532 116.041 142.508 116.809C142.484 117.553 142.424 118.309 142.328 119.077C142.232 119.773 142.112 120.469 141.968 121.165C141.848 121.861 141.68 122.533 141.464 123.181C141.248 123.829 140.972 124.453 140.636 125.053C140.3 125.629 139.88 126.169 139.376 126.673C138.464 127.561 137.468 128.257 136.388 128.761C135.332 129.241 134.192 129.505 132.968 129.553ZM132.932 108.565C132.596 108.565 132.26 108.601 131.924 108.673C131.612 108.721 131.312 108.841 131.024 109.033C130.688 109.249 130.388 109.513 130.124 109.825C129.86 110.137 129.632 110.461 129.44 110.797C128.936 111.661 128.588 112.585 128.396 113.569C128.204 114.553 128.108 115.549 128.108 116.557C128.108 117.589 128.216 118.657 128.432 119.761C128.672 120.865 129.092 121.873 129.692 122.785C129.98 123.217 130.316 123.601 130.7 123.937C131.108 124.249 131.576 124.477 132.104 124.621C132.584 124.741 133.064 124.777 133.544 124.729C134.048 124.681 134.516 124.525 134.948 124.261C135.644 123.829 136.196 123.253 136.604 122.533C137.012 121.813 137.312 121.033 137.504 120.193C137.72 119.353 137.84 118.489 137.864 117.601C137.912 116.713 137.912 115.909 137.864 115.189C137.816 114.469 137.696 113.713 137.504 112.921C137.312 112.129 137.024 111.409 136.64 110.761C136.28 110.113 135.788 109.585 135.164 109.177C134.564 108.745 133.82 108.541 132.932 108.565ZM165.199 104.533C165.367 104.797 165.475 105.133 165.523 105.541C165.643 106.381 165.691 107.245 165.667 108.133C165.667 108.997 165.679 109.849 165.703 110.689C165.703 111.673 165.703 112.645 165.703 113.605C165.727 114.565 165.739 115.537 165.739 116.521V119.581H167.287C167.551 119.581 167.827 119.617 168.115 119.689C168.403 119.737 168.667 119.833 168.907 119.977C169.147 120.121 169.351 120.301 169.519 120.517C169.687 120.733 169.783 120.997 169.807 121.309C169.807 122.077 169.567 122.605 169.087 122.893C168.607 123.157 168.031 123.313 167.359 123.361C167.311 123.361 167.203 123.373 167.035 123.397C166.891 123.397 166.723 123.397 166.531 123.397C166.339 123.397 166.159 123.397 165.991 123.397C165.847 123.397 165.763 123.373 165.739 123.325V125.773C165.739 126.037 165.739 126.337 165.739 126.673C165.739 127.009 165.715 127.345 165.667 127.681C165.619 127.993 165.523 128.293 165.379 128.581C165.259 128.869 165.067 129.097 164.803 129.265C164.683 129.337 164.527 129.397 164.335 129.445C164.167 129.469 163.975 129.493 163.759 129.517C163.543 129.541 163.327 129.553 163.111 129.553C162.919 129.529 162.751 129.493 162.607 129.445C162.175 129.301 161.899 129.001 161.779 128.545C161.659 128.065 161.575 127.621 161.527 127.213C161.527 127.141 161.527 126.913 161.527 126.529C161.527 126.121 161.527 125.701 161.527 125.269C161.527 124.813 161.515 124.405 161.491 124.045C161.467 123.685 161.431 123.505 161.383 123.505H155.047C154.351 123.505 153.619 123.493 152.851 123.469C152.083 123.445 151.423 123.229 150.871 122.821C150.439 122.509 150.187 122.161 150.115 121.777C150.043 121.369 150.067 120.973 150.187 120.589C150.331 120.181 150.535 119.785 150.799 119.401C151.063 119.017 151.315 118.669 151.555 118.357C152.467 117.133 153.343 115.885 154.183 114.613C155.047 113.341 155.911 112.081 156.775 110.833C157.255 110.185 157.747 109.561 158.251 108.961C158.779 108.361 159.271 107.737 159.727 107.089C160.063 106.585 160.423 106.069 160.807 105.541C161.215 105.013 161.719 104.605 162.319 104.317C162.895 104.053 163.447 103.921 163.975 103.921C164.503 103.921 164.911 104.125 165.199 104.533ZM161.635 111.013L155.659 119.437H161.635V111.013Z" fill="#DBDBDB"/>
<circle cx="58.7708" cy="73.0799" r="4.59945" fill="#DBDBDB"/>
<circle cx="110.898" cy="73.0799" r="4.59945" fill="#DBDBDB"/>
<path d="M41.9647 45.9951C41.7434 48.0393 42.0311 52.1277 44.9529 52.1277C47.8746 52.1277 48.273 48.0393 47.9409 45.9951" stroke="#DBDBDB" stroke-width="2" stroke-linecap="round"/>
<path d="M31.7435 65.415C31.5222 67.4592 31.8099 71.5476 34.7317 71.5476C37.6534 71.5476 38.0518 67.4592 37.7197 65.415" stroke="#DBDBDB" stroke-width="2" stroke-linecap="round"/>
<path d="M98.9364 0.0312293C78.7296 2.92163 70.1679 16.4926 70.1679 16.4926C69.1033 13.7224 67.7334 11.0763 66.0827 8.60197C65.9628 8.42688 65.7905 8.29324 65.5898 8.21978C65.3891 8.14632 65.1701 8.13674 64.9636 8.19237C62.6519 8.90513 60.5037 10.0577 58.6402 11.5851C58.5343 11.6697 58.4466 11.7742 58.3821 11.8926C58.3176 12.011 58.2776 12.1409 58.2645 12.2747C58.2514 12.4085 58.2654 12.5435 58.3057 12.672C58.346 12.8004 58.4118 12.9196 58.4993 13.0226C61.677 16.9199 64.2608 21.2549 66.1688 25.8903C66.1804 25.8979 66.194 25.902 66.2079 25.902C66.2219 25.902 66.2355 25.8979 66.2471 25.8903C69.6481 25.381 73.0828 25.1227 76.5227 25.1174H77.3992C78.9253 23.2317 85.1 15.7971 90.4843 11.7783C90.6095 11.6748 90.7696 11.6217 90.9327 11.6295C91.0958 11.6374 91.2499 11.7056 91.3644 11.8206C91.4789 11.9355 91.5453 12.0889 91.5504 12.2501C91.5556 12.4112 91.4991 12.5684 91.3921 12.6903C88.6765 16.0907 85.1313 20.0863 81.4609 25.1638C81.4527 25.176 81.4479 25.19 81.4468 25.2046C81.4458 25.2191 81.4485 25.2337 81.4548 25.2469C81.4611 25.2601 81.4707 25.2714 81.4828 25.2799C81.4948 25.2884 81.5088 25.2936 81.5235 25.2952C85.2156 25.5602 88.8798 26.1211 92.4799 26.9722C92.4909 26.9777 92.5029 26.9805 92.5152 26.9805C92.5274 26.9805 92.5395 26.9777 92.5504 26.9722C101.159 19.6071 102.662 8.98066 102.787 3.3776C102.791 2.89701 102.691 2.42109 102.493 1.98222C102.294 1.54335 102.002 1.15184 101.637 0.834312C101.272 0.516787 100.841 0.280704 100.375 0.142126C99.9094 0.00354814 99.4186 -0.0342798 98.9364 0.0312293Z" fill="#DBDBDB"/>
</svg>
