<svg width="145" height="202" viewBox="0 0 145 202" fill="none" xmlns="http://www.w3.org/2000/svg">
<path d="M110.315 136.783H87.1788C83.4392 136.783 80.4077 133.741 80.4077 129.99C80.4077 126.238 83.4392 123.196 87.1788 123.196H110.315C114.054 123.196 117.086 126.238 117.086 129.99C117.086 133.741 114.054 136.783 110.315 136.783Z" fill="#EDA751"/>
<path opacity="0.2" d="M110.315 136.783H87.1788C83.4392 136.783 80.4077 133.741 80.4077 129.99C80.4077 126.238 83.4392 123.196 87.1788 123.196H110.315C114.054 123.196 117.086 126.238 117.086 129.99C117.086 133.741 114.054 136.783 110.315 136.783Z" fill="#A35F00"/>
<path d="M29.7204 134.675C26.5454 134.675 23.8679 133.615 21.8237 132.377C15.4286 128.503 13.9419 122.194 12.6303 116.628C11.2745 110.874 10.2364 107.231 6.14952 104.932C4.11089 103.785 3.38517 101.197 4.52842 99.1517C5.67112 97.1066 8.24956 96.3771 10.2896 97.5253C17.8255 101.765 19.5119 108.923 20.8672 114.674C22.0947 119.884 23.0094 123.175 26.1984 125.107C28.1778 126.305 30.7791 127.128 35.0668 124.145C38.675 121.634 42.055 117.451 45.0372 113.76C45.3867 113.327 45.7284 112.904 46.0625 112.494C47.5421 110.678 50.2081 110.409 52.0173 111.892C53.8273 113.376 54.0959 116.051 52.6174 117.866C52.2897 118.269 51.9548 118.683 51.6124 119.107C48.4394 123.034 44.4905 127.922 39.891 131.122C36.1363 133.736 32.7082 134.675 29.7204 134.675Z" fill="#EDA751"/>
<path opacity="0.2" d="M52.0173 111.892C50.2081 110.409 47.5421 110.678 46.0625 112.494C45.7287 112.905 45.3866 113.328 45.0371 113.76C42.0549 117.451 38.675 121.634 35.0668 124.145C34.3728 124.628 33.7233 125.01 33.1133 125.308C34.6446 127.738 36.4813 129.977 38.5742 131.978C39.0086 131.715 39.4473 131.431 39.891 131.123C44.4904 127.922 48.4394 123.035 51.6124 119.108C51.955 118.684 52.2899 118.269 52.6174 117.867C54.0958 116.051 53.8273 113.376 52.0173 111.892Z" fill="#C18F00"/>
<path d="M10.2896 97.5253C8.24956 96.3771 5.67112 97.1066 4.52842 99.1517C3.38517 101.197 4.11089 103.785 6.14952 104.932C7.12008 105.478 7.91714 106.101 8.58888 106.809C10.4862 105.564 12.6334 103.358 13.7942 100.051C12.7903 99.1332 11.6347 98.2821 10.2896 97.5253Z" fill="#FCD79D"/>
<path d="M64.719 136.784C81.968 136.784 95.9512 123.749 95.9512 107.669C95.9512 91.5883 81.968 78.5527 64.719 78.5527C47.4699 78.5527 33.4868 91.5883 33.4868 107.669C33.4868 123.749 47.4699 136.784 64.719 136.784Z" fill="#FCD690"/>
<path opacity="0.1" d="M60.1592 136.474C45.8877 127.073 50.3106 107.806 52.7332 99.38V80.7754C41.434 85.1578 33.4888 95.5471 33.4888 107.668C33.4888 122.304 45.0728 134.416 60.1592 136.474Z" fill="#C18F00"/>
<path d="M45.7138 57.1807C51.8251 52.0359 55.9053 43.3993 47.2854 30.6322C38.5974 17.7643 25.6625 14.5385 15.5638 15.7322C13.074 16.0265 10.9853 17.785 10.2639 20.194C7.33875 29.9643 8.25864 43.3048 19.381 54.1232C30.4167 64.8571 39.6026 62.3255 45.7138 57.1807Z" fill="#EDA751"/>
<path d="M9.8579 21.6895C7.45985 31.296 8.81572 43.8467 19.3815 54.1238C28.9464 63.4275 37.1205 62.7627 43.1089 59.071C38.9906 31.021 20.9996 23.5825 9.8579 21.6895Z" fill="#FF91AB"/>
<path d="M83.7259 57.1807C77.6147 52.0359 73.5344 43.3993 82.1544 30.6322C90.8424 17.7643 103.778 14.5385 113.876 15.7322C116.366 16.0265 118.454 17.785 119.176 20.194C122.101 29.9643 121.181 43.3048 110.059 54.1232C99.0233 64.8571 89.8371 62.3255 83.7259 57.1807Z" fill="#EDA751"/>
<path d="M119.583 21.6895C121.981 31.296 120.625 43.8467 110.059 54.1238C100.494 63.4275 92.3199 62.7627 86.3315 59.071C90.4501 31.021 108.441 23.5825 119.583 21.6895Z" fill="#FF91AB"/>
<path d="M117.89 64.9465C117.89 89.3372 94.0851 100.02 64.72 100.02C35.3548 100.02 11.5498 89.3372 11.5498 64.9465C11.5498 40.5558 35.3551 20.7832 64.72 20.7832C94.0851 20.7832 117.89 40.5558 117.89 64.9465Z" fill="#FCD690"/>
<path opacity="0.1" d="M36.3293 27.6016C21.4384 35.428 11.5493 49.2271 11.5493 64.9461C11.5493 85.9132 29.1407 96.7505 52.7331 99.3797C18.8668 79.0843 23.2837 51.7848 36.3293 27.6016Z" fill="#C18F00"/>
<path d="M42.3523 74.0053C47.6692 74.0053 51.9794 70.5617 51.9794 66.3137C51.9794 62.0657 47.6692 58.6221 42.3523 58.6221C37.0353 58.6221 32.7251 62.0657 32.7251 66.3137C32.7251 70.5617 37.0353 74.0053 42.3523 74.0053Z" fill="#FF91AB"/>
<path d="M94.5354 74.0053C99.8523 74.0053 104.163 70.5617 104.163 66.3137C104.163 62.0657 99.8523 58.6221 94.5354 58.6221C89.2184 58.6221 84.9082 62.0657 84.9082 66.3137C84.9082 70.5617 89.2184 74.0053 94.5354 74.0053Z" fill="#FF91AB"/>
<path d="M68.444 63.3326C65.7771 63.3326 63.2414 62.174 61.487 60.1536C60.7373 59.2906 60.8271 57.9817 61.6872 57.2298C62.547 56.4777 63.852 56.5678 64.6014 57.431C65.5711 58.5476 66.9716 59.1878 68.4437 59.1878C69.9158 59.1878 71.316 58.5476 72.2858 57.431C73.0352 56.5678 74.3398 56.478 75.1999 57.2298C76.0601 57.9817 76.1498 59.2906 75.4004 60.1536C73.6463 62.1737 71.1108 63.3326 68.444 63.3326Z" fill="#495059"/>
<path d="M28.778 67.4899C27.8526 67.4899 27.0101 66.8613 26.7755 65.9193C26.499 64.8088 27.1718 63.6839 28.2787 63.4062C30.9235 62.7433 37.2256 62.2708 40.2945 62.6773C41.4254 62.8273 42.2211 63.8685 42.0718 65.0033C41.9223 66.1379 40.885 66.9354 39.7534 66.7864C37.2531 66.4554 31.4675 66.879 29.2804 67.4272C29.1124 67.4695 28.9438 67.4899 28.778 67.4899Z" fill="#495059"/>
<path d="M31.8443 78.9346C31.2108 78.9346 30.5859 78.6431 30.1808 78.0927C29.5032 77.172 29.6979 75.8744 30.6159 75.1946C32.8088 73.5704 38.4559 70.7243 41.4486 69.9271C42.5516 69.634 43.6825 70.2922 43.9752 71.3983C44.268 72.5047 43.6114 73.6395 42.5089 73.9332C40.0704 74.5828 34.8829 77.1861 33.0696 78.5292C32.7003 78.8025 32.2701 78.9346 31.8443 78.9346Z" fill="#495059"/>
<path d="M108.11 67.4899C107.944 67.4899 107.776 67.4697 107.608 67.4274C105.421 66.8792 99.6359 66.4556 97.1348 66.7867C96.0059 66.9353 94.9659 66.1384 94.8163 65.0036C94.6671 63.8687 95.4627 62.8276 96.5936 62.6775C99.6626 62.2705 105.965 62.7436 108.609 63.4064C109.716 63.6841 110.389 64.809 110.113 65.9196C109.878 66.861 109.035 67.4899 108.11 67.4899Z" fill="#495059"/>
<path d="M105.044 78.9346C104.617 78.9346 104.188 78.8025 103.819 78.5292C102.005 77.1863 96.8175 74.5828 94.3793 73.9332C93.2768 73.6395 92.6202 72.5047 92.9129 71.3983C93.2057 70.2922 94.3357 69.634 95.4396 69.9271C98.4323 70.7243 104.079 73.5704 106.272 75.1946C107.19 75.8744 107.385 77.172 106.707 78.0927C106.302 78.6431 105.677 78.9346 105.044 78.9346Z" fill="#495059"/>
<path d="M87.8554 136.783H64.7193C60.9797 136.783 57.9482 133.741 57.9482 129.99C57.9482 126.238 60.9797 123.196 64.7193 123.196H87.8554C91.595 123.196 94.6265 126.238 94.6265 129.99C94.6265 133.741 91.595 136.783 87.8554 136.783Z" fill="#EDA751"/>
<path d="M37.9709 111.339C37.2479 111.207 36.5343 110.955 35.8579 110.573C32.5984 108.734 31.4427 104.592 33.2762 101.321C36.3804 95.7844 44.2284 91.8259 51.9367 91.9085C59.6921 91.9928 66.2952 96.0859 70.0561 103.142C71.8195 106.45 70.5755 110.566 67.2779 112.336C63.9806 114.105 59.8775 112.857 58.114 109.548C56.7218 106.936 54.8344 105.651 52.1749 105.507C48.7518 105.32 45.6539 107.169 45.0634 108.011C43.6051 110.584 40.7218 111.839 37.9709 111.339ZM45.0791 107.983C45.0788 107.983 45.0786 107.984 45.078 107.984C45.0783 107.984 45.0788 107.983 45.0791 107.983Z" fill="#EDA751"/>
<path opacity="0.15" d="M37.9709 111.339C37.2479 111.207 36.5343 110.955 35.8579 110.573C32.5984 108.734 31.4427 104.592 33.2762 101.321C36.3804 95.7844 44.2284 91.8259 51.9367 91.9085C59.6921 91.9928 66.2952 96.0859 70.0561 103.142C71.8195 106.45 70.5755 110.566 67.2779 112.336C63.9806 114.105 59.8775 112.857 58.114 109.548C56.7218 106.936 54.8344 105.651 52.1749 105.507C48.7518 105.32 45.6539 107.169 45.0634 108.011C43.6051 110.584 40.7218 111.839 37.9709 111.339ZM45.0791 107.983C45.0788 107.983 45.0786 107.984 45.078 107.984C45.0783 107.984 45.0788 107.983 45.0791 107.983Z" fill="#C18F00"/>
<path d="M145 111.676H65.2188V69.9796C65.2188 67.0022 67.6245 64.5889 70.5918 64.5889H139.627C142.595 64.5889 145 67.0022 145 69.9796V111.676Z" fill="#DEE2E5"/>
<path d="M144.999 111.676H65.2178V123.893H141.323C143.353 123.893 144.999 122.242 144.999 120.205L144.999 111.676Z" fill="#7694E4"/>
<path d="M37.1711 111.676H65.2178V123.893H37.1711C35.141 123.893 33.4951 122.242 33.4951 120.205V115.364C33.4951 113.327 35.141 111.676 37.1711 111.676Z" fill="#7694E4"/>
<path opacity="0.1" d="M37.1711 111.676H65.2178V123.893H37.1711C35.141 123.893 33.4951 122.242 33.4951 120.205V115.364C33.4951 113.327 35.141 111.676 37.1711 111.676Z" fill="black"/>
<path d="M105.109 96.3788C109.649 96.3788 113.329 92.6865 113.329 88.1318C113.329 83.5771 109.649 79.8848 105.109 79.8848C100.569 79.8848 96.8887 83.5771 96.8887 88.1318C96.8887 92.6865 100.569 96.3788 105.109 96.3788Z" fill="white"/>
<ellipse cx="48.0691" cy="56.9932" rx="4.0901" ry="4.10352" fill="#495059"/>
<ellipse cx="88.97" cy="56.9932" rx="4.0901" ry="4.10352" fill="#495059"/>
<path d="M82.4954 0.0257016C66.0709 2.40449 59.1118 13.5733 59.1118 13.5733C58.2465 11.2935 57.1329 9.11571 55.7913 7.07938C55.6938 6.93527 55.5537 6.82528 55.3906 6.76483C55.2274 6.70438 55.0495 6.69649 54.8816 6.74228C53.0026 7.32887 51.2565 8.27742 49.7418 9.53447C49.6558 9.60406 49.5845 9.69009 49.5321 9.78753C49.4796 9.88496 49.4472 9.99187 49.4365 10.102C49.4258 10.2121 49.4372 10.3233 49.47 10.4289C49.5027 10.5346 49.5562 10.6327 49.6273 10.7175C52.2102 13.925 54.3104 17.4927 55.8612 21.3076C55.8707 21.3138 55.8817 21.3172 55.893 21.3172C55.9044 21.3172 55.9154 21.3138 55.9249 21.3076C58.6893 20.8884 61.4811 20.6758 64.2771 20.6715H64.9895C66.2299 19.1196 71.2489 13.0009 75.6254 9.69348C75.7271 9.60831 75.8573 9.5646 75.9898 9.57104C76.1224 9.57748 76.2477 9.63361 76.3407 9.72825C76.4338 9.82288 76.4878 9.94909 76.4919 10.0817C76.4961 10.2144 76.4502 10.3437 76.3632 10.444C74.1559 13.2426 71.2743 16.5309 68.2909 20.7097C68.2843 20.7197 68.2804 20.7312 68.2795 20.7432C68.2787 20.7552 68.2809 20.7672 68.286 20.778C68.2911 20.7889 68.2989 20.7982 68.3087 20.8052C68.3185 20.8122 68.3299 20.8165 68.3418 20.8178C71.3429 21.0359 74.3212 21.4975 77.2474 22.198C77.2563 22.2025 77.2661 22.2048 77.2761 22.2048C77.286 22.2048 77.2958 22.2025 77.3047 22.198C84.302 16.1366 85.5233 7.39103 85.6251 2.77975C85.6288 2.38422 85.5472 1.99254 85.386 1.63136C85.2247 1.27017 84.9875 0.947955 84.6905 0.686634C84.3936 0.425312 84.0438 0.231018 83.665 0.116969C83.2862 0.0029201 82.8873 -0.028212 82.4954 0.0257016Z" fill="#5FD972"/>
<path d="M8.69417 162.999C9.49577 162.999 10.2048 163.063 10.8215 163.192C11.9314 163.353 12.9025 163.917 13.7349 164.884C14.4441 165.721 15.0144 166.656 15.446 167.687C15.8777 168.685 16.2014 169.765 16.4172 170.925C16.6638 172.052 16.8334 173.212 16.9259 174.404C17.0492 175.596 17.1417 176.772 17.2034 177.932C17.265 179.414 17.2804 180.832 17.2496 182.185C17.2496 183.538 17.1725 184.94 17.0184 186.39C16.8642 187.936 16.6484 189.467 16.3709 190.981C16.0935 192.495 15.6002 193.865 14.8911 195.089C14.2745 196.12 13.5345 196.974 12.6713 197.65C11.8081 198.295 10.8831 198.73 9.89656 198.955C9.00246 199.149 8.07755 199.181 7.12182 199.052C6.19691 198.923 5.33367 198.601 4.53207 198.085C3.73047 197.57 3.08304 196.925 2.58975 196.152C2.1273 195.379 1.71109 194.477 1.34112 193.446C0.786175 191.899 0.431627 190.304 0.277474 188.661C0.184982 187.308 0.107906 186.003 0.0462456 184.747C0.0154152 183.49 0 182.185 0 180.832C0 179.93 0.0154152 179.092 0.0462456 178.319C0.107906 177.546 0.169567 176.708 0.231228 175.806C0.292889 175.065 0.354548 174.356 0.41621 173.679C0.477872 173.003 0.585776 172.294 0.739929 171.553C0.832421 170.973 0.924912 170.425 1.0174 169.91C1.10989 169.394 1.26405 168.863 1.47986 168.315C1.7265 167.767 1.98856 167.268 2.26603 166.817C2.54351 166.333 2.85181 165.899 3.19095 165.512C3.83838 164.771 4.53207 164.207 5.272 163.82C6.01193 163.434 6.78268 163.176 7.58428 163.047C7.76926 163.015 7.95424 162.999 8.13922 162.999C8.32421 162.999 8.50919 162.999 8.69417 162.999ZM33.6668 195.959C33.6976 196.797 33.6514 197.683 33.5281 198.617C33.4047 199.519 33.0039 200.196 32.3257 200.647C31.8324 201.001 31.3699 201.178 30.9383 201.178C30.4142 201.178 29.9826 200.985 29.6434 200.598C29.3351 200.212 29.0885 199.745 28.9035 199.197C28.7493 198.649 28.6414 198.085 28.5798 197.505C28.549 196.893 28.5335 196.362 28.5335 195.911V183.538H25.5276V195.959C25.5892 196.668 25.5584 197.425 25.4351 198.23C25.3426 199.036 25.1422 199.664 24.8339 200.115C24.4639 200.663 23.9244 200.937 23.2153 200.937C22.8761 200.937 22.5524 200.856 22.2441 200.695C21.9667 200.534 21.7046 200.325 21.458 200.067C20.9338 199.519 20.6255 198.859 20.533 198.085C20.4406 197.312 20.3943 196.555 20.3943 195.814V168.073C20.3943 167.944 20.3789 167.832 20.3481 167.735C20.3481 167.606 20.3481 167.477 20.3481 167.348C20.3481 166.897 20.3635 166.414 20.3943 165.899C20.4251 165.351 20.5176 164.835 20.6718 164.352C20.8568 163.869 21.088 163.45 21.3655 163.095C21.6738 162.709 22.0746 162.451 22.5679 162.322C23.2461 162.129 23.8319 162.29 24.3252 162.805C24.6643 163.192 24.9109 163.708 25.0651 164.352C25.2501 164.996 25.3734 165.705 25.4351 166.478C25.4967 167.22 25.5276 168.009 25.5276 168.847C25.5276 169.652 25.5276 170.409 25.5276 171.118V177.691H28.5335V167.783C28.5335 167.332 28.5181 166.817 28.4873 166.237C28.4873 165.625 28.549 165.045 28.6723 164.497C28.7956 163.917 29.0114 163.434 29.3197 163.047C29.6589 162.628 30.1521 162.387 30.7996 162.322C31.447 162.226 31.9865 162.435 32.4182 162.95C32.7881 163.337 33.0502 163.853 33.2043 164.497C33.3893 165.141 33.5126 165.834 33.5743 166.575C33.6668 167.284 33.6976 168.009 33.6668 168.75C33.6668 169.459 33.6668 170.087 33.6668 170.635V195.959ZM8.55544 192.528C9.04871 192.528 9.51117 192.334 9.9428 191.948C10.3744 191.561 10.6827 191.046 10.8677 190.401C11.0527 189.757 11.1914 189.064 11.2839 188.323C11.5306 186.809 11.6539 185.278 11.6539 183.732C11.6847 182.153 11.6693 180.59 11.6076 179.044C11.5768 177.82 11.5152 176.579 11.4227 175.323C11.361 174.066 11.0989 172.922 10.6365 171.891C10.3898 171.344 10.0815 170.925 9.71157 170.635C9.37243 170.345 9.00246 170.232 8.60168 170.296C8.17004 170.361 7.76926 170.57 7.39929 170.925C7.06015 171.247 6.78268 171.73 6.56687 172.375C6.5052 172.536 6.44356 172.713 6.38189 172.906C6.35107 173.067 6.30483 173.228 6.24316 173.389C6.05817 173.969 5.91944 174.517 5.82694 175.033C5.76527 175.516 5.71903 176.08 5.68821 176.724C5.62653 177.401 5.58029 178.077 5.54947 178.754C5.51865 179.398 5.51865 180.059 5.54947 180.735C5.54947 181.38 5.53404 181.944 5.50323 182.427C5.47241 182.91 5.4878 183.474 5.54947 184.118C5.58029 184.956 5.64196 185.874 5.73445 186.873C5.82694 187.84 5.98111 188.742 6.19691 189.58C6.41271 190.417 6.70561 191.126 7.07558 191.706C7.44554 192.254 7.93882 192.528 8.55544 192.528ZM45.4751 188.565C45.3826 189.016 45.3826 189.499 45.4751 190.014V190.594C45.4751 190.82 45.5676 190.997 45.7526 191.126C45.9376 191.319 46.1688 191.416 46.4463 191.416H53.1982C53.537 191.416 53.8763 191.448 54.2155 191.513C54.5855 191.545 54.9399 191.561 55.2792 191.561C55.6181 191.561 55.9266 191.577 56.2041 191.609C56.4816 191.609 56.728 191.609 56.944 191.609C57.1904 191.674 57.4527 191.722 57.7302 191.754C58.0077 191.754 58.2852 191.819 58.5626 191.948C59.1176 191.98 59.6263 192.189 60.0887 192.576C60.3351 192.801 60.5049 192.995 60.5971 193.156C60.6589 193.317 60.7051 193.478 60.7362 193.639C60.7669 193.768 60.8131 193.913 60.8749 194.074V194.992C60.8131 195.379 60.7206 195.733 60.5971 196.056C60.5049 196.378 60.3351 196.668 60.0887 196.925C59.9345 197.183 59.7032 197.393 59.3951 197.554C59.1176 197.715 58.809 197.828 58.4701 197.892C58.2234 197.892 57.9922 197.924 57.7765 197.989C57.5915 198.021 57.3754 198.037 57.129 198.037C56.944 198.037 56.7435 198.069 56.5278 198.134C56.3118 198.166 56.0805 198.182 55.8341 198.182H54.9555C54.7705 198.182 54.5544 198.182 54.308 198.182C54.092 198.15 53.8456 198.102 53.5681 198.037H44.8277C44.4884 198.037 44.1803 198.021 43.9028 197.989C43.6253 197.924 43.3323 197.892 43.0241 197.892C42.7774 197.828 42.5306 197.795 42.2838 197.795C42.0374 197.763 41.7907 197.699 41.5443 197.602C41.0818 197.505 40.6808 197.28 40.3419 196.925C40.1258 196.7 39.9719 196.491 39.8794 196.297C39.7869 196.072 39.6944 195.878 39.6019 195.717C39.4784 195.492 39.4014 195.282 39.3707 195.089C39.3396 194.863 39.2934 194.622 39.2316 194.364C39.0777 193.849 38.9852 193.333 38.9545 192.818C38.9234 192.27 38.9083 191.754 38.9083 191.271C38.939 190.723 38.9545 190.176 38.9545 189.628C38.9545 189.048 38.9545 188.468 38.9545 187.888V172.954C38.9545 172.793 38.939 172.568 38.9083 172.278C38.9083 171.956 38.9083 171.65 38.9083 171.36V169.282C38.9083 168.959 38.9083 168.637 38.9083 168.315C38.939 167.993 38.9545 167.703 38.9545 167.445C38.9545 167.123 39.0008 166.801 39.0932 166.478C39.2164 166.124 39.3089 165.77 39.3707 165.415C39.6482 164.706 40.1876 164.159 40.9893 163.772C41.1432 163.74 41.2975 163.708 41.4518 163.675C41.6367 163.643 41.8369 163.627 42.053 163.627C42.3611 163.53 42.7156 163.53 43.1166 163.627C43.3016 163.692 43.4866 163.756 43.6716 163.82C43.8565 163.885 44.026 163.965 44.1803 164.062C44.3652 164.223 44.5192 164.384 44.6427 164.545C44.7659 164.706 44.8429 164.884 44.8739 165.077C45.1203 165.528 45.2439 166.011 45.2439 166.527C45.3053 166.785 45.3516 167.042 45.3826 167.3C45.4441 167.526 45.4751 167.816 45.4751 168.17V188.565ZM69.7078 196.442C69.646 196.636 69.6153 196.813 69.6153 196.974C69.6153 197.135 69.5843 197.328 69.5228 197.554C69.5228 197.747 69.5073 197.94 69.4766 198.134C69.4455 198.295 69.3993 198.456 69.3379 198.617C69.2454 198.746 69.1991 198.859 69.1991 198.955C69.1373 199.149 69.0756 199.261 69.0141 199.294C68.9216 199.551 68.7981 199.761 68.6442 199.922C68.5206 200.115 68.3819 200.292 68.228 200.453C67.4263 200.872 66.6401 200.969 65.8694 200.743C65.4377 200.711 65.037 200.502 64.6671 200.115C64.5128 200.051 64.3896 199.922 64.2971 199.729C64.2046 199.535 64.1273 199.342 64.0659 199.149C64.0041 198.891 63.9423 198.698 63.8809 198.569C63.8191 198.408 63.7573 198.214 63.6959 197.989C63.6648 197.763 63.6497 197.586 63.6497 197.457C63.6497 197.296 63.6497 197.151 63.6497 197.022V167.638C63.4954 166.897 63.4954 166.221 63.6497 165.609C63.6497 165.254 63.6804 164.932 63.7421 164.642C63.8346 164.32 63.9423 164.03 64.0659 163.772C64.2198 163.289 64.4972 162.886 64.8983 162.564C65.4222 162.242 66.0234 162.081 66.7019 162.081C67.3493 162.081 67.8887 162.258 68.3205 162.612C68.6904 162.934 68.9831 163.434 69.1991 164.11C69.3223 164.368 69.3993 164.658 69.4304 164.98C69.4918 165.302 69.5536 165.673 69.6153 166.092C69.6768 166.446 69.7078 166.801 69.7078 167.155C69.7078 167.477 69.7078 167.783 69.7078 168.073V196.442ZM88.0207 182.234C87.8047 182.266 87.3422 182.282 86.6334 182.282C85.9241 182.282 85.1687 182.282 84.367 182.282C83.5656 182.25 82.795 182.234 82.055 182.234C81.3458 182.234 80.8678 182.234 80.6214 182.234H80.5752C80.0202 182.234 79.4653 182.234 78.91 182.234C78.3861 182.201 77.8774 182.153 77.3842 182.089C76.8907 181.992 76.4438 181.847 76.0431 181.654C75.6421 181.46 75.3184 181.17 75.072 180.784C74.7945 180.365 74.594 179.833 74.4708 179.189C74.3783 178.544 74.3009 177.932 74.2395 177.352C74.2085 176.74 74.1933 176.209 74.1933 175.758C74.224 175.306 74.2395 175.065 74.2395 175.033V173.969C74.2395 173.615 74.2395 173.212 74.2395 172.761C74.2395 172.31 74.2547 171.811 74.2858 171.263C74.2858 170.683 74.2858 170.168 74.2858 169.716C74.3165 169.265 74.3317 168.863 74.3317 168.508V167.445C74.3317 167.348 74.3317 167.171 74.3317 166.913C74.3317 166.656 74.3472 166.382 74.3783 166.092C74.409 165.77 74.4552 165.464 74.517 165.174C74.5784 164.851 74.6709 164.594 74.7945 164.4C75.072 163.949 75.3494 163.627 75.6269 163.434C75.9351 163.208 76.3206 163.047 76.783 162.95C76.937 162.918 77.1682 162.902 77.4767 162.902C77.7849 162.87 78.0779 162.838 78.3554 162.805C78.6943 162.773 79.0491 162.757 79.419 162.757H89.4081C90.0862 162.757 90.7955 162.822 91.5354 162.95C92.306 163.047 92.9842 163.289 93.5702 163.675C94.0327 163.965 94.3564 164.336 94.5414 164.787C94.7263 165.238 94.8495 165.721 94.9113 166.237C94.9727 166.752 94.9883 167.284 94.9576 167.832C94.9265 168.347 94.9113 168.83 94.9113 169.282C94.9113 169.797 94.8958 170.151 94.8651 170.345C94.8651 170.506 94.8802 170.844 94.9113 171.36V174.018C94.8802 174.179 94.8651 174.356 94.8651 174.549C94.8958 174.743 94.9113 174.936 94.9113 175.129C94.8495 175.548 94.834 175.967 94.8651 176.386C94.8958 176.772 94.9113 177.191 94.9113 177.642C94.9113 177.997 94.8802 178.383 94.8188 178.802C94.7878 179.189 94.6953 179.592 94.5414 180.01C94.4178 180.397 94.2328 180.752 93.9864 181.074C93.7704 181.396 93.4777 181.621 93.1077 181.75C92.306 182.105 91.4581 182.282 90.5642 182.282C89.7007 182.25 88.8531 182.234 88.0207 182.234ZM105.594 197.167C106.087 197.199 106.519 197.328 106.889 197.554C107.259 197.747 107.521 198.102 107.675 198.617C108.014 199.809 107.613 200.615 106.473 201.033C106.103 201.195 105.717 201.291 105.317 201.323C104.947 201.355 104.607 201.372 104.299 201.372H83.2574C82.6407 201.372 81.9933 201.372 81.3151 201.372C80.6366 201.372 79.9585 201.355 79.2803 201.323C78.4479 201.291 77.8619 201.017 77.523 200.502C77.2144 199.986 77.0294 199.358 76.968 198.617L76.783 195.427C76.752 195.073 76.752 194.654 76.783 194.171C76.8445 193.655 77.0143 193.22 77.2917 192.866C77.7231 192.415 78.2167 192.125 78.7716 191.996C79.3265 191.867 79.9429 191.803 80.6214 191.803H82.055C82.2089 191.803 82.3325 191.819 82.425 191.851C82.5175 191.851 82.61 191.851 82.7025 191.851H102.403V190.159H82.24C82.0857 190.159 81.9163 190.159 81.7313 190.159C81.577 190.127 81.4076 190.127 81.2226 190.159H80.1127C79.8042 190.159 79.5267 190.159 79.2803 190.159C79.0335 190.159 78.7868 190.127 78.5404 190.063C78.2629 189.998 78.0006 189.934 77.7542 189.87C77.5381 189.805 77.3532 189.644 77.1992 189.386C77.0143 189.032 76.8907 188.694 76.8293 188.371C76.7675 188.049 76.7982 187.695 76.9218 187.308C77.0143 187.05 77.153 186.857 77.338 186.728C77.523 186.567 77.7387 186.438 77.9854 186.342C78.2318 186.245 78.4631 186.18 78.6791 186.148C78.9255 186.084 79.1416 186.035 79.3265 186.003C79.5729 185.971 79.8042 185.955 80.0202 185.955C80.2666 185.923 80.5134 185.907 80.7602 185.907H81.5463C81.7002 185.939 81.839 185.955 81.9625 185.955C82.1165 185.955 82.2707 185.955 82.425 185.955H102.866C104.438 185.955 105.64 186.213 106.473 186.728C107.305 187.211 107.721 188.017 107.721 189.145V192.528C107.721 192.979 107.613 193.414 107.398 193.832C107.213 194.251 106.873 194.622 106.38 194.944C105.979 195.202 105.579 195.347 105.178 195.379C104.777 195.379 104.376 195.379 103.975 195.379H82.4712V197.167H105.594ZM107.721 180.155C107.69 180.51 107.644 180.88 107.583 181.267C107.521 181.621 107.398 181.976 107.213 182.33C106.997 182.749 106.735 183.055 106.426 183.248C106.21 183.41 106.041 183.538 105.918 183.635C105.825 183.732 105.64 183.78 105.363 183.78C105.147 183.78 104.839 183.748 104.438 183.683C104.068 183.619 103.79 183.522 103.605 183.393C103.174 183.136 102.834 182.733 102.588 182.185C102.341 181.638 102.218 181.138 102.218 180.687V175.468C101.694 175.468 101.154 175.451 100.6 175.419C100.075 175.355 99.6435 175.29 99.3046 175.226C98.4105 175.097 97.6705 174.823 97.0849 174.404C96.5299 173.953 96.3294 173.196 96.4837 172.133C96.6069 171.424 96.8074 170.892 97.0849 170.538C97.393 170.151 97.8862 169.942 98.5647 169.91C98.7804 169.91 98.9809 169.91 99.1659 169.91C99.3816 169.878 99.6128 169.861 99.8596 169.861C100.23 169.861 100.615 169.861 101.016 169.861C101.416 169.829 101.817 169.813 102.218 169.813V166.188C102.218 166.124 102.203 165.963 102.172 165.705C102.172 165.447 102.172 165.174 102.172 164.884C102.172 164.561 102.187 164.255 102.218 163.965C102.28 163.643 102.357 163.385 102.449 163.192C102.603 162.902 102.834 162.66 103.143 162.467C103.451 162.242 103.821 162.097 104.253 162.032C104.777 161.968 105.255 162 105.687 162.129C106.149 162.258 106.503 162.467 106.75 162.757C107.182 163.24 107.459 163.74 107.583 164.255C107.675 164.578 107.721 165.045 107.721 165.657C107.752 166.269 107.752 166.752 107.721 167.107V169.716C107.721 170.683 107.737 171.601 107.768 172.471C107.798 173.309 107.814 174.147 107.814 174.984C107.845 175.79 107.845 176.611 107.814 177.449C107.814 178.287 107.783 179.189 107.721 180.155ZM82.5637 168.798C82.2863 168.798 82.024 168.798 81.7776 168.798C81.5615 168.798 81.3614 168.83 81.1764 168.895C80.7446 168.927 80.3902 169.12 80.1127 169.475C79.9892 169.636 79.9122 169.878 79.8815 170.2C79.8815 170.522 79.8815 170.715 79.8815 170.78V171.843C79.8504 172.101 79.8352 172.342 79.8352 172.568C79.8352 172.761 79.8352 172.938 79.8352 173.099V173.679C79.8352 173.679 79.8352 173.776 79.8352 173.969C79.8352 174.163 79.8352 174.388 79.8352 174.646C79.866 174.904 79.9122 175.161 79.974 175.419C80.0354 175.677 80.1434 175.903 80.2977 176.096C80.5441 176.418 80.9451 176.611 81.5001 176.676C82.055 176.708 82.61 176.724 83.1649 176.724H83.2112C83.6119 176.724 83.9356 176.724 84.1823 176.724C84.4598 176.724 84.7217 176.724 84.9685 176.724C85.2149 176.724 85.4617 176.724 85.7084 176.724C85.9859 176.724 86.3403 176.724 86.7721 176.724C87.0185 176.724 87.2653 176.74 87.512 176.772C87.7895 176.772 88.0514 176.74 88.2982 176.676C88.5446 176.644 88.7144 176.563 88.8069 176.434C88.8994 176.305 88.9763 176.144 89.0381 175.951C89.0995 175.693 89.1306 175.484 89.1306 175.323C89.2538 174.71 89.3156 174.018 89.3156 173.244C89.3156 172.729 89.3156 172.375 89.3156 172.181C89.3463 171.988 89.3463 171.633 89.3156 171.118C89.2845 170.86 89.2693 170.603 89.2693 170.345C89.3001 170.087 89.2845 169.829 89.2231 169.571C89.0995 169.217 88.8994 169.024 88.6219 168.992C88.3444 168.927 88.067 168.895 87.7895 168.895L82.5637 168.798ZM140.826 182.185C141.35 182.217 141.874 182.298 142.399 182.427C142.954 182.556 143.447 182.797 143.879 183.152C144.31 183.506 144.526 184.006 144.526 184.65C144.526 184.972 144.464 185.327 144.341 185.713C144.249 186.1 144.11 186.374 143.925 186.535C143.678 186.793 143.354 186.986 142.954 187.115C142.584 187.211 142.214 187.292 141.844 187.356C141.474 187.389 141.15 187.405 140.873 187.405C140.626 187.405 140.487 187.405 140.456 187.405L115.807 187.453C115.098 187.485 114.358 187.485 113.588 187.453C112.848 187.421 112.215 187.179 111.692 186.728C110.982 186.18 110.628 185.552 110.628 184.843C110.628 184.392 110.767 183.941 111.044 183.49C111.352 183.007 111.753 182.685 112.247 182.524C112.894 182.298 113.557 182.201 114.235 182.234C114.913 182.234 115.607 182.217 116.316 182.185C117.056 182.153 117.688 182.137 118.212 182.137C118.767 182.137 119.291 182.137 119.785 182.137C120.308 182.137 120.848 182.153 121.403 182.185C121.958 182.185 122.621 182.185 123.392 182.185V179.769H120.432H119.646C119.183 179.769 118.675 179.769 118.12 179.769C117.565 179.737 117.01 179.672 116.455 179.576C115.931 179.479 115.437 179.35 114.975 179.189C114.513 178.996 114.127 178.738 113.819 178.416C113.51 178.158 113.279 177.803 113.125 177.352C113.002 176.869 112.909 176.402 112.848 175.951C112.786 175.5 112.755 175.113 112.755 174.791C112.786 174.437 112.801 174.243 112.801 174.211V165.367C112.801 165.335 112.801 165.238 112.801 165.077C112.801 164.884 112.801 164.674 112.801 164.449C112.832 164.191 112.878 163.949 112.94 163.724C113.002 163.498 113.079 163.321 113.171 163.192C113.418 162.838 113.665 162.596 113.911 162.467C114.189 162.306 114.543 162.193 114.975 162.129C115.283 162.064 115.607 162.032 115.946 162.032H116.547H137.08C137.358 162.032 137.62 162.048 137.867 162.081C138.144 162.081 138.422 162.113 138.699 162.177C138.977 162.242 139.238 162.306 139.485 162.371C139.732 162.435 139.963 162.58 140.179 162.805C140.364 162.967 140.503 163.144 140.595 163.337C140.688 163.53 140.765 163.724 140.826 163.917C140.888 164.11 140.919 164.304 140.919 164.497C140.95 164.658 140.934 164.835 140.873 165.029C140.811 165.544 140.564 165.979 140.133 166.333C139.732 166.656 139.208 166.817 138.56 166.817H118.813V168.702C119.122 168.702 119.63 168.702 120.34 168.702C121.048 168.702 121.85 168.702 122.744 168.702C123.638 168.702 124.548 168.702 125.473 168.702C126.428 168.702 127.307 168.702 128.109 168.702C128.91 168.702 129.558 168.702 130.051 168.702C130.575 168.702 130.837 168.702 130.837 168.702H135.092C135.215 168.702 135.354 168.718 135.508 168.75C135.662 168.75 135.816 168.734 135.971 168.702H137.173C137.481 168.702 137.805 168.734 138.144 168.798C138.483 168.83 138.792 168.927 139.069 169.088C139.5 169.282 139.778 169.588 139.901 170.006C140.055 170.425 140.102 170.812 140.04 171.166C140.009 171.36 139.978 171.553 139.948 171.746C139.948 171.94 139.87 172.117 139.716 172.278C139.377 172.665 139.023 172.906 138.653 173.003C138.314 173.099 137.944 173.148 137.543 173.148H118.767L118.813 174.356C118.782 174.71 118.798 174.839 118.86 174.743C118.921 174.646 118.998 174.614 119.091 174.646C119.276 174.743 119.6 174.823 120.062 174.888C120.555 174.92 121.064 174.936 121.588 174.936H121.819C121.973 174.936 122.343 174.936 122.929 174.936C123.515 174.904 124.209 174.888 125.01 174.888C125.812 174.888 126.66 174.888 127.554 174.888C128.479 174.888 129.342 174.888 130.144 174.888C130.945 174.888 131.639 174.904 132.225 174.936C132.81 174.936 133.18 174.936 133.335 174.936H135.508C135.754 174.936 135.955 174.92 136.109 174.888H136.895C137.358 174.888 137.82 174.904 138.283 174.936C138.776 174.936 139.254 175 139.716 175.129C139.778 175.129 139.855 175.145 139.948 175.178C140.04 175.21 140.117 175.242 140.179 175.274C140.549 175.5 140.811 175.79 140.965 176.144C141.15 176.499 141.227 176.869 141.196 177.256C141.165 177.642 141.026 177.997 140.78 178.319C140.564 178.641 140.256 178.899 139.855 179.092C139.238 179.382 138.56 179.576 137.82 179.672C137.111 179.737 136.448 179.769 135.831 179.769H133.936C133.689 179.801 133.165 179.817 132.363 179.817C131.562 179.817 130.745 179.817 129.912 179.817C129.943 180.204 129.959 180.607 129.959 181.025C129.959 181.444 129.959 181.831 129.959 182.185C130.822 182.185 131.747 182.185 132.733 182.185C133.72 182.153 134.706 182.137 135.693 182.137C136.679 182.137 137.62 182.137 138.514 182.137C139.408 182.137 140.179 182.153 140.826 182.185ZM138.098 189.096C139.362 189.096 140.333 189.306 141.011 189.725C141.72 190.143 142.075 190.723 142.075 191.464V194.751C142.075 194.912 142.075 195.234 142.075 195.717C142.106 196.168 142.121 196.668 142.121 197.215C142.121 197.731 142.121 198.23 142.121 198.714C142.121 199.197 142.106 199.535 142.075 199.729C142.013 200.405 141.751 200.953 141.289 201.372C140.857 201.79 140.287 202 139.578 202C139.238 202 138.915 201.952 138.607 201.855C138.175 201.726 137.836 201.533 137.589 201.275C137.373 201.017 137.204 200.727 137.08 200.405C136.988 200.083 136.911 199.745 136.849 199.39C136.818 199.004 136.803 198.633 136.803 198.279C136.803 198.15 136.787 197.924 136.757 197.602C136.757 197.248 136.741 196.893 136.71 196.539C136.71 196.184 136.695 195.846 136.664 195.524C136.664 195.202 136.649 194.976 136.618 194.847C136.525 194.815 136.263 194.783 135.831 194.751C135.431 194.718 134.66 194.702 133.52 194.702C132.995 194.702 132.533 194.718 132.132 194.751C131.731 194.751 131.361 194.751 131.022 194.751H130.005H114.559C114.528 194.751 114.405 194.718 114.189 194.654C114.004 194.59 113.788 194.493 113.541 194.364C113.295 194.235 113.063 194.058 112.848 193.832C112.632 193.607 112.508 193.317 112.478 192.963C112.293 191.77 112.478 190.804 113.033 190.063C113.403 189.612 113.803 189.354 114.235 189.29C114.666 189.193 114.898 189.145 114.929 189.145L138.098 189.096Z" fill="#FCD690"/>
</svg>
